<?xml version="1.0" standalone="no"?>
<!DOCTYPE svg PUBLIC "-//W3C//DTD SVG 20010904//EN"
 "http://www.w3.org/TR/2001/REC-SVG-20010904/DTD/svg10.dtd">
<svg version="1.0" xmlns="http://www.w3.org/2000/svg"
 width="595.000000pt" height="595.000000pt" viewBox="0 0 595.000000 595.000000"
 preserveAspectRatio="xMidYMid meet">

<g transform="translate(0.000000,595.000000) scale(0.100000,-0.100000)"
fill="#000000" stroke="none">
<path d="M0 2985 l0 -2965 349 0 c205 0 352 4 356 9 3 5 -3 16 -14 23 -13 9
-20 28 -22 57 -3 38 0 46 19 54 29 13 39 3 18 -18 -18 -18 -22 -70 -6 -80 6
-4 10 8 10 29 0 31 3 36 24 36 35 0 27 31 -12 51 -17 9 -29 18 -27 21 3 3 -2
36 -10 73 -9 37 -15 68 -13 70 2 1 16 5 31 9 25 6 28 4 25 -16 -2 -19 2 -23
29 -26 29 -3 31 -5 23 -31 -7 -27 -6 -29 25 -34 48 -8 72 1 80 30 3 14 4 27 1
30 -2 2 -28 8 -58 12 -71 10 -107 42 -101 92 3 24 0 41 -11 52 -9 8 -16 26
-16 38 0 12 -3 19 -7 15 -10 -9 -10 -76 -1 -76 3 0 9 6 11 13 3 6 6 3 6 -8 1
-14 -5 -21 -19 -21 -19 0 -38 31 -27 43 3 3 2 15 -3 27 -10 27 -2 41 28 50 29
10 55 -10 47 -35 -5 -16 -1 -19 29 -19 27 0 34 -3 30 -15 -8 -21 49 -20 81 1
33 21 32 34 -2 34 -16 0 -35 5 -43 11 -11 7 -6 9 20 4 34 -7 34 -6 13 9 -12 9
-29 13 -38 10 -9 -4 -26 -2 -38 3 -12 6 -35 16 -51 22 -16 7 -26 14 -23 18 4
3 -4 14 -17 24 -18 14 -25 31 -28 65 -3 41 -1 48 21 57 20 10 26 8 41 -11 10
-12 25 -22 34 -22 8 0 19 -7 24 -16 6 -11 23 -17 51 -17 48 0 46 -1 54 34 5
21 2 28 -19 37 -14 7 -36 12 -49 12 -13 0 -37 8 -54 18 -28 15 -31 22 -32 67
-1 31 -3 38 -6 20 -7 -56 -14 -76 -24 -73 -12 4 -18 103 -8 119 9 16 109 0
102 -16 -8 -22 85 -11 102 11 31 41 21 47 -63 44 -31 -1 -44 3 -48 15 -5 11
-14 15 -29 11 -15 -4 -29 3 -49 23 -25 26 -26 33 -20 79 6 51 28 72 72 72 16
-1 16 -1 -1 -11 -9 -6 -15 -14 -12 -20 9 -14 73 -11 78 4 2 6 3 2 1 -9 -5 -26
17 -37 54 -27 24 5 41 19 42 33 0 16 -161 57 -180 45 -6 -4 -10 -3 -9 2 4 21
-3 32 -20 38 -18 5 -19 12 -14 58 3 29 6 53 7 53 1 1 21 5 46 9 43 7 44 6 25
-9 -19 -16 -19 -16 -1 -14 12 2 24 -6 31 -19 11 -21 11 -21 23 -2 12 18 14 18
37 3 29 -19 64 -15 79 8 13 22 7 28 -40 34 -71 10 -84 14 -84 29 0 11 -11 15
-40 15 -29 0 -40 4 -40 15 0 8 -4 15 -10 15 -5 0 -10 24 -10 53 0 52 1 53 38
67 20 8 40 16 43 18 4 1 9 -6 12 -18 7 -28 43 -26 51 2 8 31 -4 40 -58 40 -25
1 -46 4 -47 7 0 3 -2 15 -5 26 -6 33 -8 58 -6 98 2 35 4 37 37 37 19 0 35 5
35 10 0 9 -14 14 -32 12 -14 -2 -16 28 -3 41 10 10 11 17 3 25 -7 7 -7 37 1
99 20 154 20 153 41 153 15 0 20 -7 20 -24 0 -14 5 -28 10 -31 6 -4 10 8 10
29 0 28 -4 35 -22 39 l-23 4 23 8 c18 6 23 14 20 30 -4 18 -1 21 14 17 10 -2
18 -13 18 -23 0 -22 39 -26 58 -7 24 24 3 68 -32 68 -12 0 -16 11 -16 48 0 45
-2 49 -32 63 -20 9 -32 20 -29 29 2 8 4 39 4 68 0 44 3 52 18 52 11 0 19 5 19
10 0 6 -5 10 -11 10 -7 0 -9 8 -4 23 4 12 8 31 10 42 8 67 21 98 54 134 20 22
35 44 33 49 -1 5 8 18 21 28 35 29 41 43 23 63 -15 16 -15 20 4 41 11 12 39
49 62 81 29 40 50 59 64 59 13 0 32 15 49 37 16 21 41 52 58 70 25 27 33 30
55 22 17 -7 29 -6 36 1 5 5 18 10 28 10 11 0 18 7 18 18 0 25 31 41 97 48 33
4 84 20 116 37 32 16 60 27 63 24 2 -2 21 11 41 29 21 19 52 36 72 40 66 11
66 11 -9 87 -40 39 -103 108 -141 152 l-67 81 14 83 c8 46 19 104 24 128 l10
44 -71 91 c-57 74 -70 97 -65 117 3 15 26 139 51 276 56 312 96 538 130 725
15 80 32 148 38 153 15 10 216 1 436 -19 l163 -15 33 39 c40 46 86 66 185 81
71 10 87 9 285 -29 204 -40 308 -58 795 -141 129 -22 303 -53 385 -69 83 -16
191 -36 240 -45 50 -9 110 -20 135 -25 25 -5 101 -19 169 -30 69 -12 128 -23
133 -26 4 -3 43 -9 86 -14 54 -6 113 -23 195 -56 64 -25 115 -50 112 -54 -2
-3 -44 1 -92 10 -285 55 -709 121 -730 114 -15 -5 -16 -4 -3 5 12 9 9 11 -15
12 -43 2 -65 5 -104 14 -25 5 -32 4 -26 -5 5 -9 3 -9 -11 -2 -11 5 -24 7 -31
5 -6 -2 -14 1 -17 6 -4 7 -15 7 -31 1 -15 -6 -27 -6 -30 0 -4 6 4 11 17 11 15
1 17 3 7 6 -9 2 -34 -7 -54 -21 -41 -28 -59 -33 -52 -13 2 6 -3 17 -12 24 -14
11 -13 12 8 13 13 0 22 3 19 6 -3 3 -22 2 -42 -1 -32 -6 -34 -9 -25 -27 6 -11
9 -33 6 -48 -9 -42 2 -72 24 -67 13 4 19 0 19 -13 0 -13 -5 -17 -20 -13 -14 4
-20 0 -20 -11 0 -9 6 -16 13 -17 6 0 -1 -7 -18 -15 -26 -13 -27 -14 -5 -10 14
3 34 6 45 7 11 0 14 3 8 6 -19 7 -16 22 5 18 9 -1 16 -9 14 -18 -1 -8 2 -18 8
-22 21 -13 8 -25 -27 -25 -28 0 -34 3 -23 10 13 8 12 10 -2 10 -10 0 -18 -4
-18 -9 0 -13 -24 -12 -165 9 -66 10 -156 23 -200 29 -82 12 -131 19 -294 46
-128 20 -140 20 -145 -7 -3 -13 -12 -54 -20 -93 -9 -38 -27 -126 -42 -195 -15
-69 -34 -159 -43 -200 l-17 -75 -17 60 c-9 33 -15 46 -12 29 13 -94 16 -182 7
-204 -8 -19 -9 -9 -5 41 5 63 4 67 -23 93 -24 22 -27 28 -14 36 8 5 10 10 4
10 -8 0 -12 27 -12 84 0 95 -7 126 -28 126 -8 0 -14 5 -14 10 0 6 9 10 20 10
11 0 20 2 20 5 0 3 -14 34 -32 68 -25 51 -31 73 -30 121 1 33 -3 65 -9 72 -6
7 -9 23 -7 36 5 24 8 20 23 -28 4 -14 8 -13 24 7 20 27 37 119 21 119 -6 0
-10 -9 -10 -20 0 -11 -4 -20 -10 -20 -12 0 -24 45 -15 59 3 6 1 11 -4 11 -10
0 -15 -14 -12 -33 1 -4 -5 -18 -14 -30 -8 -12 -16 -17 -16 -12 -1 6 -5 -8 -9
-30 -5 -22 -18 -83 -30 -135 -12 -52 -30 -135 -40 -185 -10 -49 -28 -135 -40
-190 -23 -103 -52 -243 -121 -570 -44 -206 -66 -315 -163 -798 -35 -175 -67
-321 -69 -324 -3 -2 -44 18 -92 46 -47 28 -91 51 -98 51 -8 0 -7 -4 3 -10 10
-7 12 -12 4 -17 -6 -5 -14 -18 -18 -30 -9 -27 24 -48 60 -39 13 4 24 2 24 -3
0 -5 3 -17 7 -27 4 -12 3 -15 -5 -10 -7 4 -12 3 -12 -3 0 -5 8 -12 18 -14 16
-4 16 -5 -1 -6 -14 -1 -16 -7 -12 -33 3 -18 14 -40 25 -50 13 -10 16 -18 9
-20 -9 -3 -7 -11 4 -29 8 -13 20 -43 27 -67 6 -23 15 -40 20 -37 16 10 11 -12
-6 -26 -13 -11 -15 -11 -13 2 3 11 -13 50 -26 67 -3 4 -115 -47 -115 -54 0 -3
10 -2 23 2 21 6 21 6 -2 -13 l-25 -20 22 -7 c11 -4 40 -2 63 4 30 8 45 8 52 1
8 -8 7 -11 -2 -11 -7 0 -9 -5 -6 -11 4 -6 13 -8 21 -5 8 3 14 1 14 -4 0 -6 -6
-10 -12 -10 -7 -1 0 -7 16 -13 l30 -13 -91 -47 c-50 -26 -98 -47 -106 -47 -7
0 -22 18 -32 39 -11 26 -22 38 -31 34 -10 -4 -12 0 -8 11 3 8 15 18 25 21 25
8 21 37 -6 41 -11 2 -32 -1 -47 -6 -23 -7 -30 -5 -49 18 l-21 27 15 -26 c9
-15 13 -36 10 -48 -6 -24 32 -71 39 -49 5 14 48 -30 48 -49 0 -7 7 -13 16 -13
8 0 13 -3 11 -7 -3 -5 -1 -19 4 -32 8 -21 14 -23 48 -17 22 3 45 8 53 11 10 4
17 -9 25 -47 12 -60 11 -62 -54 -79 -38 -10 -43 -15 -43 -40 0 -36 11 -42 60
-34 54 9 81 35 78 74 -1 17 -6 31 -10 31 -4 0 -8 18 -8 40 0 38 2 40 20 30 11
-6 20 -17 20 -25 0 -7 4 -15 10 -17 5 -1 11 -16 12 -31 4 -45 41 -72 101 -72
52 0 52 0 55 -34 2 -19 10 -44 18 -55 14 -20 15 -19 12 19 -2 22 -7 43 -13 47
-6 5 -5 8 2 8 17 0 33 -33 33 -67 0 -15 4 -33 8 -39 10 -15 51 -36 60 -30 4 2
27 5 52 7 57 3 64 7 48 27 -7 9 -8 13 -3 10 6 -4 17 -3 25 2 9 5 19 5 27 -2 7
-5 20 -8 28 -4 9 3 13 2 10 -4 -6 -9 37 -16 60 -10 38 10 65 11 65 1 0 -6 -7
-11 -15 -11 -8 0 -15 -4 -15 -8 0 -5 18 -9 40 -10 22 -1 40 3 40 9 0 22 18 -2
22 -30 5 -32 -5 -41 -47 -41 -13 0 -31 -10 -39 -22 -9 -12 -18 -20 -20 -17 -3
3 -9 42 -15 112 -1 4 -6 7 -12 7 -8 0 -9 -11 -5 -33 12 -67 12 -70 -14 -78
-14 -4 -46 -10 -72 -14 -38 -5 -46 -9 -41 -22 4 -10 2 -14 -4 -10 -5 3 -31 0
-57 -8 -27 -8 -53 -12 -60 -8 -6 4 -17 8 -24 9 -10 2 -11 -1 -1 -12 8 -10 9
-14 0 -14 -9 0 -9 -5 -1 -20 6 -11 7 -20 3 -20 -4 0 1 -7 11 -15 13 -10 15
-15 6 -15 -7 0 -11 -3 -7 -6 3 -4 35 -1 70 6 64 12 65 12 63 43 0 18 -5 35
-11 39 -6 5 -5 8 2 8 7 0 25 -13 40 -30 32 -36 55 -37 109 -6 23 13 63 27 90
31 27 4 55 12 62 17 6 6 12 8 12 5 0 -3 16 -1 35 4 24 7 42 6 57 -1 22 -10 22
-10 4 4 -18 14 -17 15 10 21 16 3 46 10 67 15 21 4 37 4 37 -1 0 -5 -11 -9
-24 -9 -12 0 -34 -10 -48 -23 -14 -13 -40 -28 -59 -33 -31 -9 -34 -13 -37 -55
-3 -50 -18 -61 -107 -78 -52 -10 -65 -4 -65 30 0 18 -35 14 -182 -17 -87 -18
-102 -29 -52 -37 21 -4 41 -2 44 3 3 5 26 11 50 12 25 2 50 7 57 11 6 4 19 4
29 0 12 -4 15 -3 9 6 -5 9 -2 12 10 9 16 -3 43 -54 34 -63 -9 -8 -244 -46
-272 -43 -29 3 -32 6 -32 38 0 35 0 35 -40 32 -22 -2 -56 -7 -76 -11 -22 -5
-44 -4 -55 2 -22 12 -34 28 -28 38 2 4 -3 13 -12 20 -14 11 -15 6 -9 -48 4
-33 3 -62 -1 -65 -5 -2 -32 -3 -61 0 l-52 4 -12 54 c-7 30 -15 54 -18 54 -3
-1 -33 -7 -66 -15 -81 -20 -82 -20 -89 20 -4 19 -10 37 -15 39 -5 3 -5 -13 -1
-34 4 -22 3 -43 -1 -46 -17 -10 -49 7 -49 27 0 40 -19 59 -57 59 -50 0 -33 12
34 26 47 9 56 9 61 -5 5 -12 7 -10 12 9 5 21 14 26 58 33 29 5 50 13 47 18 -4
5 -1 9 6 9 7 0 10 3 6 6 -6 6 16 34 26 34 3 0 7 -8 9 -18 4 -15 13 -17 44 -14
38 5 69 24 57 36 -4 3 2 6 13 6 10 0 15 4 9 8 -5 4 -10 18 -10 32 0 17 -5 24
-15 21 -8 -2 -39 -6 -67 -9 -43 -4 -53 -8 -53 -23 0 -22 -1 -23 -34 -8 -20 9
-33 8 -66 -5 -23 -9 -45 -14 -50 -11 -4 3 -15 25 -23 50 -17 50 -17 50 47 76
22 9 41 22 42 30 2 8 6 24 10 37 8 28 -13 29 -58 2 -47 -29 -65 -25 -87 18
-11 20 -20 30 -20 22 -1 -8 6 -28 14 -44 18 -34 18 -36 5 -36 -6 0 -16 11 -22
25 -6 14 -18 25 -26 25 -26 0 -87 -34 -127 -71 -32 -31 -45 -37 -70 -33 -29 4
-30 4 -5 -7 19 -8 21 -13 10 -17 -26 -9 -28 -23 -6 -45 11 -12 28 -33 36 -45
14 -21 18 -23 43 -11 15 7 27 17 27 22 0 5 7 4 15 -3 20 -16 19 -19 -14 -58
-26 -30 -32 -32 -51 -22 -18 10 -25 8 -44 -9 -31 -29 -42 -26 -68 14 -19 30
-28 35 -51 32 -15 -2 -30 0 -33 5 -10 16 -36 7 -61 -22 -13 -16 -30 -30 -36
-30 -7 0 -25 18 -40 40 l-28 40 20 29 c11 15 32 36 47 46 26 17 27 17 66 -22
28 -26 42 -34 45 -24 3 7 16 23 29 34 29 25 54 71 45 83 -11 16 -41 15 -41 0
0 -8 -6 -19 -14 -23 -8 -4 -15 -12 -15 -18 0 -5 -10 -11 -21 -11 -14 -1 -35
15 -58 42 -20 24 -42 44 -48 44 -7 0 -22 -16 -34 -35 -22 -36 -24 -36 -72 -3
-23 16 -28 17 -28 5 0 -16 70 -77 89 -77 5 0 -10 -21 -35 -47 l-46 -47 -40 23
c-46 26 -62 21 -27 -8 17 -15 20 -20 9 -21 -17 0 -56 -40 -40 -40 5 0 14 8 20
18 8 13 9 8 4 -23 -4 -22 -8 -43 -11 -47 -7 -13 -68 3 -161 44 -51 22 -94 39
-96 37 -2 -2 -6 -14 -10 -25 -6 -19 -1 -24 36 -35 39 -13 43 -17 40 -44 -3
-30 -3 -30 12 -8 16 21 18 21 60 7 33 -11 45 -21 49 -40 2 -14 -1 -24 -7 -24
-8 0 -8 -2 0 -8 6 -4 10 -19 10 -35 -1 -16 4 -27 11 -27 7 0 13 5 13 11 0 5
13 24 29 41 16 18 35 51 42 75 11 40 15 44 51 49 28 5 43 14 55 35 10 16 20
29 23 29 4 0 19 -14 36 -31 16 -17 40 -35 54 -41 24 -9 24 -10 6 -24 -11 -8
-16 -14 -12 -14 4 0 -8 -16 -27 -37 l-35 -36 -30 21 c-16 12 -34 22 -40 22
-14 0 -2 -51 14 -57 8 -3 11 -16 7 -41 -6 -37 -6 -37 15 -19 11 11 25 16 31
13 21 -14 57 17 80 69 13 30 28 53 35 52 6 -1 10 7 8 18 -2 15 0 16 6 7 8 -11
13 -12 30 -1 18 11 24 9 49 -17 15 -17 37 -35 47 -41 11 -6 20 -19 21 -29 4
-49 17 -124 21 -124 2 0 13 5 23 12 41 26 75 -17 42 -53 -12 -13 -21 -27 -21
-32 0 -5 -16 -7 -35 -4 -31 5 -36 3 -41 -19 -3 -13 -11 -24 -18 -24 -6 0 -5
-4 3 -9 8 -5 19 -7 26 -5 9 4 55 -86 55 -107 0 -8 -77 -59 -88 -59 -13 0 -11
34 2 42 15 11 28 10 22 -1 -4 -5 5 -4 19 2 25 12 30 23 19 51 -8 21 -26 20
-70 -5 -20 -11 -42 -18 -50 -15 -18 7 -31 -12 -39 -57 -8 -41 -20 -45 -73 -26
-17 6 -37 9 -44 7 -7 -3 18 -15 55 -29 71 -25 77 -34 55 -86 -9 -22 -12 -24
-15 -10 -3 9 -12 17 -21 17 -15 0 -15 -2 -2 -10 11 -7 5 -10 -22 -10 -26 0
-38 -5 -38 -14 0 -9 -7 -12 -19 -9 -14 3 -19 0 -17 -11 3 -24 11 -28 67 -37
28 -5 54 -10 56 -13 3 -3 6 -26 6 -53 1 -26 6 -51 12 -55 5 -4 -17 -8 -50 -8
-33 0 -70 -3 -82 -6 -19 -5 -20 -8 -8 -20 11 -11 12 -21 5 -40 -6 -14 -10 -37
-10 -52 1 -27 1 -27 18 -7 9 11 25 19 35 17 12 -2 21 6 28 27 6 17 16 32 22
32 7 1 23 3 37 4 14 1 40 -6 60 -16 19 -11 40 -19 47 -19 7 0 13 -5 13 -10 0
-6 11 -16 25 -22 35 -16 34 -41 -1 -28 -38 15 -49 12 -64 -15 -12 -23 -19 -25
-81 -25 -37 0 -71 -5 -74 -10 -3 -6 3 -10 14 -10 18 0 21 -6 21 -37 0 -21 4
-45 9 -52 8 -12 13 -11 30 10 11 13 20 30 21 37 0 6 6 12 13 11 17 -1 54 -17
41 -18 -12 -1 -27 -41 -19 -50 3 -2 14 4 26 15 20 18 20 18 14 -11 -15 -64
-13 -63 -61 -60 -48 2 -58 -4 -48 -29 7 -18 94 -23 94 -5 0 14 42 7 47 -8 3
-7 -3 -10 -14 -7 -20 5 -59 -41 -44 -51 5 -3 12 4 16 15 8 24 12 24 58 5 20
-8 50 -15 67 -15 22 0 30 -5 30 -18 0 -10 3 -22 7 -26 4 -3 8 -12 9 -19 1 -7
5 -20 9 -30 7 -16 3 -18 -21 -15 -17 2 -29 9 -30 18 -1 8 -2 25 -2 38 -2 16
-13 27 -38 38 -43 18 -54 9 -54 -43 0 -33 -24 -47 -32 -21 -4 10 -10 10 -32 0
-15 -6 -38 -12 -52 -12 -23 0 -25 3 -19 31 5 22 4 29 -4 25 -7 -5 -11 2 -11
16 0 20 -8 26 -45 36 -65 17 -72 16 -84 -20 -13 -35 -5 -51 12 -27 15 20 73
34 81 20 4 -5 2 -12 -4 -16 -5 -3 -10 -15 -10 -26 0 -22 -17 -24 -72 -8 -43
11 -48 30 -26 101 12 40 12 40 52 33 23 -3 50 -8 62 -11 18 -5 20 -1 16 30 -4
34 -6 36 -43 37 -21 1 -44 2 -50 3 -26 2 -55 -65 -59 -136 0 -5 -6 -8 -14 -8
-8 0 -22 -7 -31 -16 -12 -12 -26 -15 -55 -10 -22 3 -40 3 -40 -2 0 -19 27 -32
65 -32 33 0 43 -5 56 -27 l17 -26 12 22 c9 19 17 21 43 15 47 -10 50 -14 25
-34 -13 -10 -20 -22 -16 -26 4 -4 14 -1 22 5 8 7 19 10 25 7 5 -3 12 0 15 6 3
7 4 -5 1 -27 -2 -22 -4 -43 -5 -47 0 -5 -24 -8 -52 -8 -29 0 -60 -5 -68 -10
-10 -6 -11 -10 -2 -10 6 0 12 -6 12 -14 0 -17 24 -27 45 -19 14 5 113 -20 139
-35 20 -11 -23 -20 -59 -12 -21 5 -42 7 -46 4 -4 -2 -87 -4 -185 -5 -99 0
-195 -4 -214 -9 -21 -5 158 -8 445 -8 264 1 474 3 468 5 -7 3 -13 10 -13 18 0
7 -14 15 -31 19 -48 9 -56 8 -62 -14 -5 -21 -43 -26 -80 -11 -15 6 -13 9 17
24 41 19 47 37 14 37 -13 0 -33 3 -46 6 -21 6 -21 7 -5 19 21 15 15 25 -16 28
-20 1 -21 2 -5 14 9 7 22 14 28 16 14 5 7 13 -22 21 -16 6 -24 3 -28 -11 -11
-35 -39 -86 -49 -90 -23 -7 -35 13 -26 45 15 53 -33 36 -67 -23 -20 -32 -23
-34 -47 -23 -31 14 -31 19 0 73 23 38 31 43 66 47 28 2 43 -1 49 -11 6 -11 10
-10 19 7 14 26 36 29 45 6 4 -11 11 -13 19 -8 6 5 35 9 62 9 43 0 50 -3 47
-18 -2 -11 2 -17 10 -16 7 2 38 -1 69 -5 52 -6 56 -9 52 -29 -4 -18 -3 -19 6
-6 8 12 22 15 66 11 37 -3 55 -1 55 7 0 6 -11 11 -24 11 -45 0 -86 13 -86 26
0 10 -6 11 -24 5 -13 -5 -41 -7 -64 -4 l-40 5 -4 52 c-6 75 -5 77 68 72 43 -3
64 0 64 8 0 6 4 6 9 -3 5 -7 29 -16 55 -18 28 -4 43 -10 39 -16 -4 -6 0 -8 11
-4 10 4 42 7 72 7 58 0 65 9 35 42 -14 15 -28 19 -50 16 -17 -3 -31 -1 -31 4
0 5 -8 5 -17 0 -10 -5 -66 -12 -125 -16 -93 -6 -107 -5 -102 8 4 10 -3 17 -20
22 -26 6 -28 10 -29 52 0 12 -6 22 -13 22 -18 0 -18 19 -1 26 7 2 46 1 85 -4
64 -7 74 -6 89 10 10 12 20 15 27 9 7 -6 45 -9 86 -8 43 0 85 -4 98 -12 20
-11 23 -9 32 14 6 15 10 29 10 33 0 9 -123 8 -138 -1 -6 -4 -36 -4 -66 1 -35
6 -56 5 -56 -1 0 -8 -48 -4 -92 9 -19 6 -25 26 -7 21 6 -1 14 4 16 11 3 7 -4
12 -19 12 -21 1 -21 2 -5 11 9 6 26 8 36 4 40 -12 29 14 -11 28 l-43 15 67 1
c37 1 69 5 72 10 3 5 26 6 50 4 25 -3 53 -2 63 3 10 4 43 8 73 8 42 1 55 5 55
16 0 12 -13 15 -70 13 -38 -2 -94 -5 -122 -9 -29 -3 -54 -2 -54 3 -1 4 -2 23
-4 40 -2 32 -2 32 37 28 25 -4 37 -2 33 5 -3 5 -22 10 -41 10 -51 0 -41 17 15
25 26 4 59 12 72 19 24 12 129 10 129 -3 0 -7 208 12 245 22 11 3 50 8 88 11
l67 5 0 -28 c0 -28 -1 -29 -77 -35 -43 -4 -123 -14 -178 -23 -55 -9 -106 -16
-112 -16 -17 0 -16 -27 2 -70 15 -36 15 -36 65 -30 33 4 50 2 50 -5 0 -6 -24
-12 -57 -14 -31 -2 -58 -8 -60 -15 -3 -8 12 -10 47 -9 46 3 53 1 63 -21 15
-33 2 -42 -61 -44 -28 -1 -52 -6 -52 -10 0 -40 40 -61 94 -49 34 7 36 6 36
-16 0 -22 -4 -24 -42 -24 -24 0 -53 -3 -65 -6 -20 -6 -20 -7 -5 -34 10 -16 22
-26 30 -23 9 4 10 8 3 12 -5 4 10 11 34 17 32 7 42 7 35 -1 -6 -7 -3 -11 9
-12 13 -1 18 6 18 25 1 63 3 71 17 66 11 -4 13 0 9 15 -5 19 -1 21 41 21 25 0
78 5 118 11 40 6 88 13 106 15 25 4 32 10 30 22 -2 11 -12 16 -28 15 -14 -1
-44 0 -67 3 l-43 5 0 47 c0 62 24 84 83 80 36 -3 42 -6 43 -26 2 -36 12 -38
42 -9 26 25 28 34 23 79 -1 4 -16 2 -33 -3 -18 -5 -49 -9 -68 -9 l-35 0 3 70
4 69 75 3 76 3 1 32 1 32 -56 -6 c-66 -7 -68 -4 -75 71 -4 53 -4 54 27 60 22
4 30 11 27 23 -2 14 -13 17 -54 14 -39 -2 -53 1 -57 13 -4 9 -16 16 -28 16
-18 0 -20 -4 -15 -25 5 -21 2 -27 -19 -35 -15 -6 -46 -10 -70 -10 l-43 0 3
-62 c2 -35 4 -71 4 -80 1 -10 5 -18 10 -18 5 0 7 13 5 30 -7 39 6 38 29 -1 21
-39 22 -85 1 -93 -20 -8 -34 1 -34 20 0 21 -217 19 -237 -2 -8 -8 -34 -14 -59
-14 l-44 0 0 44 c0 24 -2 51 -6 59 -4 11 9 15 62 20 47 3 70 10 76 21 7 12 24
16 68 16 53 0 60 2 60 20 0 14 -9 21 -37 25 -81 14 -88 19 -91 61 -2 29 0 35
8 24 9 -13 11 -13 20 0 7 11 5 16 -11 18 -13 2 -19 10 -17 20 3 14 16 17 71
17 l67 0 -1 50 c-1 28 -3 43 -6 34 -5 -21 -33 -29 -93 -28 -40 0 -42 2 -22 11
12 6 22 15 22 20 0 4 11 8 24 8 13 0 29 7 36 15 14 17 35 21 25 5 -3 -5 -2
-10 3 -10 5 0 12 9 15 21 3 12 10 19 15 15 5 -3 9 1 9 9 0 8 -5 12 -10 8 -5
-3 -7 3 -5 13 2 15 14 18 70 18 66 1 93 -13 46 -25 -23 -5 -23 -5 -2 -11 19
-5 20 -10 15 -44 l-6 -39 -56 -3 c-55 -3 -55 -3 -51 -32 4 -29 7 -30 54 -30
27 0 58 5 69 11 17 9 25 5 52 -22 18 -18 26 -29 20 -25 -7 4 -13 2 -13 -3 0
-14 16 -14 43 1 12 7 27 13 32 14 27 4 55 17 55 26 0 12 -89 1 -107 -14 -8 -6
-17 -2 -28 16 -10 14 -22 26 -29 26 -6 0 -12 21 -14 50 -2 30 1 50 7 50 6 0
11 -4 11 -10 0 -5 6 -10 14 -10 8 0 12 8 9 23 -3 15 0 24 9 24 7 1 34 3 60 6
53 6 56 4 60 -42 1 -18 8 -37 15 -43 15 -12 120 -5 134 9 18 18 -9 32 -63 34
l-57 2 2 58 c1 64 -6 58 90 75 22 4 36 11 34 18 -3 7 13 12 42 14 43 2 89 13
136 31 120 47 163 57 185 43 25 -15 38 -16 22 0 -19 19 -14 28 14 28 15 0 47
7 73 15 25 8 66 19 90 25 24 7 40 15 35 18 -5 4 -6 25 -3 47 3 22 7 32 8 23 0
-9 6 -28 13 -42 10 -23 15 -25 52 -19 61 9 74 18 69 48 -3 14 -10 25 -17 26
-6 0 -27 1 -46 2 -33 2 -35 5 -40 40 -4 26 -13 43 -31 55 l-27 17 49 1 c52 1
94 26 84 52 -3 9 0 12 9 9 8 -3 40 -1 72 4 112 19 199 25 241 16 38 -7 42 -12
45 -40 2 -19 8 -31 15 -30 7 2 12 -2 10 -9 -1 -6 7 -14 17 -16 16 -3 18 0 13
27 -5 24 -3 31 9 31 10 0 14 6 11 14 -8 21 47 26 71 7 29 -23 44 -75 28 -97
-13 -17 -21 -17 -106 1 -14 3 -49 3 -77 0 -44 -5 -53 -10 -53 -26 0 -10 5 -19
11 -19 5 0 7 -4 4 -10 -4 -6 7 -10 27 -10 44 0 78 -10 78 -22 0 -6 -7 -8 -15
-4 -11 4 -15 -2 -15 -24 0 -17 5 -30 10 -30 21 0 9 -28 -14 -34 -13 -3 -31 -9
-40 -12 -13 -5 -16 1 -16 25 0 17 -4 31 -10 31 -5 0 -10 -6 -10 -14 0 -16 -30
-26 -77 -26 -26 0 -33 -4 -33 -20 0 -23 -8 -28 -67 -34 -43 -5 -53 3 -53 45 0
21 -29 25 -65 8 -16 -7 -13 -8 15 -6 33 2 35 0 38 -34 3 -38 -10 -49 -63 -49
-11 0 -28 -9 -38 -20 -21 -25 -21 -23 1 -47 23 -27 54 -33 69 -13 8 10 29 15
67 15 45 0 56 3 56 16 0 10 11 20 26 23 18 5 25 12 22 24 -4 13 2 17 29 19 32
2 69 20 72 36 3 17 17 10 29 -16 7 -15 20 -27 28 -27 18 0 90 -36 99 -50 8
-12 -15 -90 -27 -90 -4 0 -8 5 -8 11 0 8 -18 10 -62 5 -70 -7 -76 -10 -58 -31
7 -8 9 -15 4 -15 -5 0 -2 -5 6 -10 8 -5 34 -6 57 -3 34 5 44 2 49 -11 6 -15 8
-56 5 -93 -1 -7 -23 -15 -52 -19 -39 -5 -53 -12 -59 -28 -7 -19 -3 -22 29 -26
l36 -5 3 -62 3 -61 -53 -4 c-29 -2 -55 -3 -57 -2 -8 7 -8 120 1 131 14 17 -9
27 -59 24 l-43 -2 0 36 c0 19 -4 35 -9 35 -4 0 -6 -17 -4 -37 5 -44 -14 -63
-63 -63 -17 0 -37 -6 -43 -14 -7 -8 -27 -17 -47 -20 -19 -4 -32 -11 -29 -16 3
-5 -4 -11 -15 -15 -11 -3 -20 -13 -20 -22 0 -12 7 -14 35 -10 19 3 37 1 40 -4
10 -16 27 -10 21 7 -10 25 13 44 53 44 25 0 40 6 49 20 9 15 23 20 52 20 46 0
51 -7 53 -72 l2 -42 -50 -9 c-27 -4 -53 -14 -57 -21 -4 -7 -28 -19 -53 -26
-25 -7 -45 -18 -45 -26 0 -7 -8 -15 -17 -17 -10 -3 -39 -10 -65 -17 -27 -7
-48 -17 -48 -23 0 -14 101 -2 114 14 6 8 33 20 60 27 27 7 54 19 60 27 12 15
45 19 159 16 l79 -1 -5 -101 c-3 -55 -7 -102 -9 -103 -2 -2 -20 -6 -40 -9 -47
-7 -48 -5 -63 126 -7 65 -25 77 -25 17 0 -29 -4 -40 -15 -40 -8 0 -15 -4 -15
-8 0 -10 -65 -42 -85 -42 -9 0 -23 -4 -33 -10 -47 -26 -97 -43 -123 -43 -15 0
-26 -4 -23 -9 3 -5 -6 -6 -20 -2 -17 4 -26 2 -26 -6 0 -6 -4 -9 -8 -6 -5 3
-16 -4 -26 -15 -13 -16 -24 -19 -46 -14 -22 5 -32 3 -36 -9 -4 -11 -14 -14
-33 -10 -21 5 -23 3 -11 -6 12 -9 8 -10 -20 -6 -22 4 -30 3 -21 -3 17 -11 -3
-26 -21 -15 -7 5 -8 3 -3 -6 6 -10 4 -12 -8 -7 -9 3 -19 2 -23 -4 -3 -5 -14
-7 -25 -4 -10 4 -19 2 -19 -3 0 -6 -18 -17 -40 -26 -44 -17 -75 -22 -52 -7 10
6 8 10 -8 14 -15 4 -19 10 -14 19 6 10 4 10 -9 -1 -9 -7 -43 -14 -77 -15 -54
-1 -60 -3 -60 -23 0 -17 -8 -23 -42 -29 -24 -4 -53 -6 -65 -5 -32 3 -30 -27 2
-35 13 -3 39 -1 56 5 17 6 35 8 40 5 5 -3 9 -1 9 5 0 11 17 17 78 26 39 6 44
5 49 -14 3 -12 10 -21 15 -21 5 0 7 8 4 18 -5 14 3 20 39 30 59 16 85 15 85
-2 0 -7 7 -19 15 -26 13 -11 15 -8 15 22 0 32 3 35 51 52 52 19 57 18 73 -19
6 -15 27 17 21 33 -3 8 8 18 28 26 69 29 73 29 87 -4 17 -41 30 -38 30 9 0 39
0 40 45 47 25 3 52 3 61 0 16 -6 15 -8 -2 -22 -17 -14 -17 -15 -1 -10 12 4 17
0 17 -14 0 -40 18 -27 23 16 5 46 18 64 48 64 13 0 15 -9 11 -52 -5 -61 -11
-71 -46 -71 -14 0 -26 -5 -26 -12 0 -7 -29 -17 -70 -25 -39 -7 -70 -16 -70
-19 0 -4 9 -14 20 -24 11 -9 20 -24 20 -32 0 -8 5 -15 10 -15 6 0 10 9 10 21
0 13 11 25 34 34 19 8 37 19 41 25 9 14 61 12 73 -3 9 -10 3 -16 -26 -26 -79
-28 -87 -39 -67 -102 5 -16 1 -19 -25 -19 -25 0 -31 -3 -26 -16 3 -9 6 -20 6
-25 0 -12 47 -11 71 2 12 6 28 8 36 5 13 -5 11 -11 -12 -32 -16 -15 -25 -31
-21 -40 3 -9 6 -21 6 -28 0 -7 13 -11 34 -11 18 1 43 -2 56 -7 l23 -8 -21 -23
c-15 -16 -22 -36 -22 -65 0 -36 -3 -42 -21 -42 -19 0 -21 4 -14 33 6 30 9 65
6 95 -1 16 -19 15 -37 -3 -9 -8 -26 -15 -40 -15 -13 0 -24 -4 -24 -10 0 -5 8
-10 18 -10 10 0 27 -7 38 -14 18 -14 18 -15 -13 -26 -30 -11 -33 -16 -33 -51
0 -39 13 -52 24 -24 6 17 36 21 36 4 0 -12 -61 -39 -90 -39 -13 0 -20 -7 -20
-20 0 -16 7 -20 31 -20 17 0 39 5 50 10 13 8 25 7 39 0 17 -9 20 -8 20 10 0
11 -4 20 -10 20 -5 0 -10 4 -10 9 0 8 91 23 99 15 2 -2 -7 -13 -21 -24 -27
-20 -44 -89 -23 -91 38 -5 437 -9 1283 -14 l972 -6 0 2975 0 2976 -2975 0
-2975 0 0 -2965z m4127 1989 c-3 -3 -12 -4 -19 -1 -8 3 -5 6 6 6 11 1 17 -2
13 -5z m43 -4 c-8 -5 -19 -10 -25 -10 -5 0 -3 5 5 10 8 5 20 10 25 10 6 0 3
-5 -5 -10z m-1373 -72 c-3 -7 -5 -2 -5 12 0 14 2 19 5 13 2 -7 2 -19 0 -25z
m1113 22 c12 -8 11 -10 -7 -10 -13 0 -23 5 -23 10 0 13 11 13 30 0z m-1110
-265 c0 -8 -2 -15 -4 -15 -2 0 -6 7 -10 15 -3 8 -1 15 4 15 6 0 10 -7 10 -15z
m1957 -207 c-3 -7 -5 -2 -5 12 0 14 2 19 5 13 2 -7 2 -19 0 -25z m-23 -80
c-14 -59 -23 -95 -59 -223 -7 -27 -28 -104 -46 -170 -17 -66 -37 -140 -44
-165 -62 -220 -115 -420 -164 -610 l-27 -105 -46 -8 -47 -9 40 -111 c22 -62
51 -141 63 -177 l23 -65 189 2 c131 1 174 -1 139 -7 -27 -4 -110 -9 -182 -9
-106 -1 -133 -4 -133 -15 0 -31 25 -36 181 -31 85 3 180 8 212 11 35 3 57 1
53 -4 -8 -14 -116 -22 -285 -23 -89 0 -151 -4 -151 -9 0 -6 12 -10 28 -10 34
0 57 -14 48 -29 -9 -13 -9 -13 31 -2 27 8 35 6 54 -15 28 -30 39 -30 73 1 15
14 36 25 46 25 10 0 21 4 24 8 6 10 156 14 155 4 0 -4 -4 -16 -8 -27 -5 -12
-3 -35 5 -57 14 -42 11 -48 -48 -73 -28 -11 -42 -27 -61 -66 -17 -37 -26 -47
-30 -35 -4 9 -4 23 -1 31 4 8 2 15 -4 15 -6 0 -8 9 -5 20 4 14 11 19 23 15 26
-8 45 20 32 48 -6 12 -11 16 -11 10 -1 -7 -9 -13 -20 -13 -10 0 -29 -8 -42
-19 -19 -14 -127 -73 -181 -99 -3 -2 -9 6 -13 17 -3 12 -13 21 -21 21 -22 0
-16 16 11 28 14 7 28 19 31 27 4 8 12 15 19 15 20 0 26 15 17 39 -7 20 -10 18
-42 -24 -34 -46 -45 -51 -69 -36 -9 6 -11 18 -6 40 5 24 3 31 -8 31 -28 0 -39
-28 -35 -87 2 -49 0 -58 -14 -61 -10 -2 -18 1 -18 7 0 14 -53 41 -80 41 -19 0
-27 11 -44 67 -6 18 -1 25 29 38 19 10 35 21 35 25 0 4 6 8 13 7 6 0 21 1 32
2 19 2 19 3 1 10 -17 7 -17 8 -2 23 24 24 10 46 -37 57 l-42 11 43 -4 c29 -3
42 0 42 9 0 16 -25 37 -33 28 -4 -3 -7 -1 -7 4 0 6 5 13 10 15 9 3 -40 164
-96 313 l-15 40 -477 0 c-496 0 -1091 20 -1108 37 -2 3 -1 13 2 23 8 20 -32
20 529 -5 116 -5 393 -10 618 -10 349 0 407 2 407 14 0 14 -34 57 -157 200
-29 34 -69 80 -89 103 -32 38 -38 63 -15 63 13 0 263 -286 290 -331 18 -30 29
-39 51 -39 15 0 32 6 38 13 12 14 111 324 172 537 23 80 46 155 51 168 5 13 9
31 9 41 0 10 11 56 24 102 13 46 35 137 50 202 15 64 31 115 36 112 5 -3 11 9
15 26 8 35 33 99 39 99 2 0 -2 -28 -10 -62z m-1917 -300 c-3 -8 -6 -5 -6 6 -1
11 2 17 5 13 3 -3 4 -12 1 -19z m50 0 c-3 -8 -6 -5 -6 6 -1 11 2 17 5 13 3 -3
4 -12 1 -19z m440 -1234 c-3 -3 -12 -4 -19 -1 -8 3 -5 6 6 6 11 1 17 -2 13 -5z
m-80 -10 c-3 -3 -12 -4 -19 -1 -8 3 -5 6 6 6 11 1 17 -2 13 -5z m1643 -104
c11 -7 7 -10 -17 -10 -18 0 -33 5 -33 10 0 13 30 13 50 0z m70 -154 c0 -3 -4
-8 -10 -11 -5 -3 -10 -1 -10 4 0 6 5 11 10 11 6 0 10 -2 10 -4z m10 -47 c0 -5
-4 -9 -10 -9 -5 0 -10 7 -10 16 0 8 5 12 10 9 6 -3 10 -10 10 -16z m-14 -54
c-3 -9 -11 -13 -16 -10 -8 5 -7 11 1 21 14 18 24 11 15 -11z m-196 -56 c0 -5
-5 -9 -10 -9 -6 0 -39 -18 -74 -40 -35 -22 -66 -40 -70 -40 -16 0 -4 18 20 28
14 7 22 17 19 22 -13 20 16 41 47 34 24 -5 30 -2 35 15 4 17 8 19 19 10 8 -6
14 -15 14 -20z m-405 -47 c1 -15 -4 -22 -17 -22 -11 0 -18 7 -18 18 0 38 32
42 35 4z m589 19 c9 -14 -34 -61 -56 -61 -16 0 -19 5 -14 23 3 12 6 28 6 35 0
14 56 17 64 3z m-390 -47 c31 -14 56 -29 56 -33 0 -3 -7 -17 -16 -29 -15 -22
-54 -31 -54 -12 0 6 -7 10 -15 10 -8 0 -15 -7 -15 -15 0 -8 3 -14 8 -14 4 1
17 1 28 0 20 -1 21 -4 12 -43 -5 -23 -11 -44 -12 -46 -4 -4 -88 28 -99 38 -4
4 -9 17 -10 29 -1 12 -6 19 -12 17 -5 -2 -9 -8 -8 -14 2 -6 -11 -3 -27 6 -27
16 -28 18 -13 35 9 10 22 16 29 13 8 -3 11 0 8 8 -3 8 -2 16 3 19 5 3 10 -6
11 -20 1 -17 -2 -24 -11 -20 -15 6 -45 -9 -36 -18 3 -3 19 -2 36 1 25 5 33 13
43 47 10 36 27 67 35 67 1 0 28 -12 59 -26z m276 -15 c0 -23 -4 -24 -30 -2
-19 16 -19 18 -3 24 24 9 33 2 33 -22z m-74 -33 c-17 -27 -46 -35 -46 -14 0 6
10 22 22 35 29 31 48 14 24 -21z m-386 8 c0 -14 -4 -23 -9 -20 -5 3 -7 15 -4
26 7 28 13 25 13 -6z m-3468 -43 c12 -14 13 -21 5 -25 -7 -2 -4 -5 6 -5 15 -1
18 -8 15 -38 l-3 -38 -45 4 c-25 1 -46 4 -47 5 -1 1 3 21 9 45 9 34 8 45 -2
51 -10 6 -8 9 6 13 34 8 39 7 56 -12z m3448 -21 c0 -20 -5 -30 -15 -30 -10 0
-15 10 -15 30 0 20 5 30 15 30 10 0 15 -10 15 -30z m374 9 c23 -11 24 -15 19
-63 -4 -29 -14 -60 -25 -71 -10 -11 -24 -28 -31 -37 -9 -13 -20 -15 -47 -10
-45 10 -55 42 -13 43 15 0 37 4 48 8 16 7 13 9 -17 15 -21 4 -40 11 -43 16 -9
15 6 62 19 57 6 -2 22 0 36 5 20 7 22 11 10 18 -13 9 -13 10 0 11 10 0 8 3 -5
9 -19 8 -19 9 2 9 12 1 33 -4 47 -10z m-2429 -59 c-3 -5 -13 -10 -21 -10 -8 0
-14 5 -14 10 0 6 9 10 21 10 11 0 17 -4 14 -10z m2135 -15 c21 -11 30 -23 30
-40 0 -22 -4 -25 -36 -25 -21 0 -42 -7 -52 -18 -10 -9 -14 -13 -10 -8 3 4 4
14 2 20 -5 13 22 86 32 86 3 0 18 -7 34 -15z m391 -28 c-6 -15 -14 -27 -19
-27 -20 0 -20 14 1 40 25 31 32 25 18 -13z m248 -10 c7 -19 9 -42 5 -51 -7
-19 -54 -46 -81 -46 -14 0 -15 -2 -4 -9 22 -14 6 -38 -30 -46 -22 -5 -34 -3
-40 6 -13 21 -12 23 36 77 25 27 45 53 45 58 0 13 32 44 46 44 7 0 17 -15 23
-33z m-491 -3 c19 -5 14 -24 -6 -24 -22 0 -72 22 -72 32 0 7 46 2 78 -8z
m-2193 -14 c6 0 -5 -7 -24 -15 -40 -18 -41 -18 -41 -5 0 6 8 10 18 10 14 0 15
2 2 10 -11 8 -9 9 10 6 14 -3 30 -5 35 -6z m2480 -69 c-3 -6 -11 -11 -17 -11
-6 0 -6 6 2 15 14 17 26 13 15 -4z m-400 -13 c12 -18 13 -24 2 -28 -25 -10
-67 -48 -67 -61 0 -8 -6 -3 -13 11 -15 28 -12 43 4 20 8 -11 9 -10 4 8 -6 22
10 32 17 10 3 -9 6 -9 12 0 4 7 2 12 -3 12 -6 0 -11 5 -11 11 0 6 6 9 14 6 10
-4 12 0 9 14 -7 26 12 24 32 -3z m181 -5 c47 -31 48 -31 34 -53 -8 -12 -15
-11 -55 8 -25 12 -55 22 -66 22 -27 0 -20 21 12 37 31 16 25 17 75 -14z m-849
-17 c-4 -9 -18 -16 -32 -16 -22 0 -24 3 -15 19 18 35 60 32 47 -3z m113 9 c0
-8 -7 -15 -15 -15 -26 0 -18 20 13 29 1 1 2 -6 2 -14z m-1397 -2 c-7 -2 -19
-2 -25 0 -7 3 -2 5 12 5 14 0 19 -2 13 -5z m1157 -18 c0 -8 -4 -15 -10 -15 -5
0 -10 7 -10 15 0 8 5 15 10 15 6 0 10 -7 10 -15z m642 -68 c-3 -20 -13 -31
-38 -42 -32 -13 -64 -11 -64 4 0 3 5 13 10 21 7 11 5 17 -8 21 -16 6 -16 7 2
14 11 5 21 3 26 -5 10 -16 50 17 50 41 0 8 3 19 8 23 9 10 19 -41 14 -77z
m523 73 c3 -5 1 -10 -4 -10 -6 0 -10 -3 -10 -7 5 -33 -3 -43 -33 -43 l-33 -1
30 -24 c17 -14 38 -25 48 -25 27 0 20 -16 -13 -30 -25 -10 -35 -9 -73 9 -24
12 -49 21 -55 21 -9 0 -8 9 3 31 12 22 21 28 35 24 13 -4 20 0 25 17 4 13 12
29 17 36 12 14 54 16 63 2z m-1195 -20 c0 -5 -8 -10 -17 -10 -15 0 -16 2 -3
10 19 12 20 12 20 0z m-1015 -24 c10 -9 15 -20 11 -23 -3 -3 -36 -7 -73 -9
-49 -2 -63 0 -50 7 9 6 15 14 12 19 -3 5 -1 11 5 15 5 3 10 -1 10 -9 0 -9 5
-16 11 -16 6 0 9 6 6 14 -3 8 -4 16 -2 18 10 10 55 0 70 -16z m905 -13 c0 -9
-13 -12 -37 -12 -31 2 -33 3 -10 6 20 3 27 10 27 26 0 18 2 19 10 7 5 -8 10
-21 10 -27z m831 -10 c12 -15 12 -16 -3 -10 -11 4 -18 2 -18 -5 0 -6 -3 -9 -6
-5 -6 6 2 37 9 37 3 0 11 -8 18 -17z m173 -38 c36 -33 26 -45 -29 -32 -38 9
-45 14 -45 34 0 32 39 31 74 -2z m-2740 -10 c6 -17 -43 -75 -63 -75 -7 0 -9 4
-6 10 3 5 1 19 -6 31 -10 19 -9 21 5 16 10 -4 14 -3 11 2 -6 10 22 30 41 31 7
0 15 -7 18 -15z m1183 -1 c-3 -3 -12 -4 -19 -1 -8 3 -5 6 6 6 11 1 17 -2 13
-5z m1202 -13 c7 -5 9 -11 5 -14 -10 -5 -54 9 -54 18 0 8 34 6 49 -4z m464 -8
c4 -2 7 -10 7 -18 0 -10 -10 -12 -37 -8 -46 7 -47 8 -39 28 4 11 13 14 33 9
16 -4 31 -9 36 -11z m-2681 -68 c10 -27 18 -51 18 -52 0 -5 -94 -43 -107 -43
-14 0 -30 33 -40 81 -4 23 1 29 34 47 58 30 74 25 95 -33z m3002 44 c36 -17
23 -29 -30 -29 -42 0 -44 -1 -34 -20 9 -18 8 -20 -15 -20 -14 0 -34 -6 -45
-12 -16 -10 -23 -10 -37 5 -16 16 -16 18 5 40 41 41 110 57 156 36z m-784 -6
c0 -16 -17 -34 -30 -31 -17 4 -25 -19 -8 -25 7 -2 2 -2 -12 0 -33 6 -35 9 -16
28 9 9 16 21 16 26 0 5 11 9 25 9 14 0 25 -3 25 -7z m-1193 -28 c-4 -8 -12
-15 -19 -14 -10 0 -10 2 0 6 6 2 12 12 12 21 0 8 3 13 6 9 4 -3 4 -13 1 -22z
m1753 5 c15 -11 30 -31 32 -45 6 -29 2 -30 -32 -10 -14 8 -37 14 -52 15 -22 0
-26 4 -21 18 16 46 32 51 73 22z m-1680 6 c0 -3 -4 -8 -10 -11 -5 -3 -10 -1
-10 4 0 6 5 11 10 11 6 0 10 -2 10 -4z m360 -14 c0 -15 -22 -30 -36 -25 -8 3
-14 0 -14 -5 0 -6 10 -12 23 -14 17 -2 23 -11 25 -35 3 -29 1 -31 -37 -38 -48
-8 -61 -2 -60 28 0 12 3 16 6 10 5 -14 24 -18 21 -5 -2 7 12 73 17 82 5 9 55
10 55 2z m1018 -16 c0 -19 -6 -26 -26 -28 -18 -2 -26 -10 -29 -27 -4 -30 -14
-41 -20 -23 -3 6 -9 12 -15 12 -9 0 -6 -133 3 -198 3 -21 -3 -30 -26 -36 -14
-4 -25 -12 -25 -18 0 -16 31 -48 47 -48 7 0 13 -6 13 -12 1 -7 9 -30 18 -50
15 -31 21 -36 32 -25 11 9 11 8 0 -8 -8 -11 -22 -25 -30 -32 -13 -10 -13 -14
3 -30 9 -11 17 -27 17 -36 0 -8 11 -24 25 -35 24 -19 34 -52 17 -52 -5 0 -17
9 -27 20 -10 11 -24 20 -30 20 -7 0 -15 7 -18 15 -5 12 -10 12 -34 0 -40 -21
-47 -19 -77 20 -25 33 -26 36 -12 64 9 16 23 32 33 36 16 6 15 8 -6 16 -17 7
-22 15 -18 29 5 18 0 20 -43 20 -27 0 -50 -5 -52 -11 -2 -7 -9 -5 -17 5 -11
14 -11 16 3 16 12 0 16 9 15 33 0 29 -1 30 -9 10 -11 -26 -28 -29 -56 -9 -19
14 -19 15 5 39 13 14 29 23 36 21 7 -3 27 2 44 10 22 12 33 27 41 57 6 23 10
42 8 43 -2 1 -16 8 -32 14 -33 14 -44 9 -27 -12 9 -11 9 -15 -1 -19 -10 -3
-10 -9 -2 -23 18 -32 7 -44 -29 -32 -55 19 -59 26 -51 87 4 31 8 65 9 76 1 14
9 20 27 20 30 1 85 34 71 44 -12 8 -13 41 -1 41 5 0 23 -7 39 -16 17 -8 43
-14 57 -13 15 2 33 0 40 -5 7 -4 15 -1 18 9 4 8 11 14 18 13 6 -2 12 1 13 6 2
12 25 26 44 26 11 0 17 -8 17 -24z m-1158 -37 c0 -6 -4 -7 -10 -4 -5 3 -10 11
-10 16 0 6 5 7 10 4 6 -3 10 -11 10 -16z m-60 -9 c0 -5 -2 -10 -4 -10 -3 0 -8
5 -11 10 -3 6 -1 10 4 10 6 0 11 -4 11 -10z m835 -20 c24 -9 26 -14 23 -57 -3
-47 -3 -48 -36 -46 -46 2 -61 25 -48 74 11 41 19 45 61 29z m-765 -4 c0 -3 -4
-8 -10 -11 -5 -3 -10 -1 -10 4 0 6 5 11 10 11 6 0 10 -2 10 -4z m-63 -42 c-3
-3 -13 0 -21 9 -8 8 -12 18 -9 21 4 4 14 0 22 -9 8 -8 12 -17 8 -21z m70 10
c-3 -3 -12 -4 -19 -1 -8 3 -5 6 6 6 11 1 17 -2 13 -5z m-194 -24 c3 -11 1 -20
-4 -20 -5 0 -9 9 -9 20 0 11 2 20 4 20 2 0 6 -9 9 -20z m1284 -5 c8 -22 -6
-33 -17 -15 -13 20 -12 30 0 30 6 0 13 -7 17 -15z m111 -12 c-10 -2 -28 -2
-40 0 -13 2 -5 4 17 4 22 1 32 -1 23 -4z m-2754 -26 c14 -10 16 -21 11 -50 -7
-34 -10 -37 -41 -37 -43 0 -47 9 -24 52 10 20 16 39 13 42 -12 12 23 6 41 -7z
m133 -23 c8 -21 -5 -30 -55 -38 -38 -6 -43 -4 -40 11 7 35 83 57 95 27z m1198
6 c-3 -5 -14 -10 -23 -10 -15 0 -15 2 -2 10 20 13 33 13 25 0z m1355 -7 c2 -2
-1 -8 -8 -12 -7 -4 -14 -17 -15 -29 -2 -29 -13 -15 -21 26 -5 31 -4 33 17 26
12 -3 24 -8 27 -11z m237 -30 c-20 -2 -52 -2 -70 0 -17 2 0 4 38 4 39 0 53 -2
32 -4z m-2740 -19 c-3 -3 -12 -4 -19 -1 -8 3 -5 6 6 6 11 1 17 -2 13 -5z
m1723 -46 c0 -4 -6 -8 -14 -8 -8 0 -13 11 -13 27 0 25 0 26 13 8 8 -10 14 -22
14 -27z m-1490 -5 c0 -6 -5 -15 -11 -19 -8 -4 -7 -9 2 -15 12 -8 11 -11 -1
-19 -11 -7 -12 -10 -2 -10 8 0 12 -9 10 -22 -2 -19 -12 -24 -55 -31 l-53 -9 0
-40 0 -41 48 6 c26 3 55 9 65 12 14 6 17 2 17 -23 0 -17 3 -39 6 -49 5 -17 5
-17 -9 0 -17 20 -23 20 -120 6 l-74 -11 7 -42 6 -43 -68 0 -69 -1 6 30 c5 21
4 28 -4 24 -6 -4 -11 -2 -11 4 0 6 7 13 15 16 21 9 19 23 -4 21 -11 0 -19 -4
-19 -7 2 -21 -4 -31 -16 -27 -10 4 -12 0 -9 -14 4 -16 0 -19 -24 -19 -26 0
-31 5 -40 43 -6 23 -14 51 -17 62 -4 14 1 25 19 38 30 22 32 18 4 -14 -18 -21
-18 -24 -3 -29 9 -3 56 -4 104 -3 96 4 100 2 100 -69 0 -16 3 -28 8 -28 4 0 5
21 3 46 -3 40 1 50 23 71 14 13 26 32 26 43 0 17 -9 20 -82 22 l-83 3 -3 31
c-3 32 17 49 68 57 15 3 6 5 -20 6 -57 3 -29 16 48 23 49 5 53 3 58 -18 8 -32
20 -30 21 4 0 15 1 32 2 37 2 15 131 13 131 -2z m348 11 c17 -5 22 -14 22 -38
0 -27 -3 -31 -27 -32 -16 0 -43 -2 -62 -5 -33 -4 -35 -2 -39 30 -2 21 0 31 7
26 6 -3 11 -2 11 4 0 5 12 12 28 14 15 2 29 5 32 5 3 1 15 -1 28 -4z m1562
-44 c0 -5 -5 -10 -11 -10 -5 0 -7 5 -4 10 3 6 8 10 11 10 2 0 4 -4 4 -10z
m385 -11 c-4 -5 3 -9 14 -9 11 0 23 -4 26 -10 3 -6 -5 -10 -18 -10 -14 0 -28
7 -31 16 -9 24 -7 36 4 29 6 -4 8 -11 5 -16z m410 11 c3 -5 -1 -10 -9 -10 -9
0 -16 5 -16 10 0 6 4 10 9 10 6 0 13 -4 16 -10z m-446 -16 c10 -9 -45 -3 -59
6 -11 7 -5 8 20 4 19 -4 37 -8 39 -10z m354 -21 c-7 -2 -19 -2 -25 0 -7 3 -2
5 12 5 14 0 19 -2 13 -5z m-120 -10 c-7 -2 -21 -2 -30 0 -10 3 -4 5 12 5 17 0
24 -2 18 -5z m-1965 -21 c-2 -12 -18 -19 -52 -24 -26 -4 -50 -9 -53 -12 -7 -7
-32 24 -33 39 0 6 31 11 71 12 61 1 70 -1 67 -15z m-348 -41 c0 -30 -21 -54
-28 -33 -2 7 -25 12 -59 12 -46 0 -54 3 -51 18 3 13 14 17 56 18 29 1 55 4 59
8 14 14 23 5 23 -23z m196 -8 c-10 -10 -19 5 -10 18 6 11 8 11 12 0 2 -7 1
-15 -2 -18z m2134 12 c69 0 149 3 179 7 63 9 59 -8 -5 -23 -119 -28 -338 -20
-417 16 -30 13 -27 13 43 7 41 -4 131 -7 200 -7z m340 5 c16 -9 17 -15 8 -47
-11 -41 -24 -54 -45 -46 -19 8 -16 43 5 44 11 0 12 2 4 6 -10 4 -10 8 0 21 10
12 10 14 1 8 -9 -5 -11 -2 -7 8 7 19 9 19 34 6z m-873 -51 c6 -6 9 -18 6 -25
-3 -9 2 -14 13 -15 11 0 14 -3 7 -6 -7 -2 -13 -15 -13 -28 0 -18 -7 -25 -30
-30 -17 -4 -31 -15 -35 -26 -3 -10 -8 -28 -11 -39 -7 -27 13 -26 37 3 l18 22
1 -47 c0 -37 4 -50 20 -58 38 -20 22 -38 -52 -61 -47 -14 -81 -32 -95 -48
l-22 -26 -1 25 c-1 14 -2 41 -4 62 -2 30 1 38 22 47 13 7 22 14 19 18 -3 3 0
11 7 19 16 15 30 99 20 115 -5 8 1 10 20 7 14 -3 26 -2 27 1 1 3 2 20 4 38 5
59 18 76 42 52z m328 -78 c3 -5 1 -12 -5 -16 -5 -3 -10 1 -10 9 0 18 6 21 15
7z m-469 -19 c14 -9 14 -95 0 -104 -19 -13 -23 -9 -23 17 0 14 2 25 6 25 4 0
7 9 8 20 1 11 -3 20 -8 20 -6 0 -8 4 -5 9 4 5 0 12 -6 14 -9 4 -8 6 2 6 8 0
20 -3 26 -7z m-1795 -100 c-8 -15 -8 -29 -1 -48 17 -44 7 -54 -55 -54 -32 0
-55 4 -55 11 0 5 4 8 9 4 5 -3 12 -1 16 5 3 5 -1 10 -9 10 -9 0 -16 5 -16 10
0 6 11 10 25 10 14 0 25 5 25 10 0 6 7 10 16 8 10 -2 19 3 21 10 3 8 -10 12
-47 12 -31 0 -49 4 -45 10 3 6 25 10 48 10 23 0 49 4 57 10 20 12 24 6 11 -18z
m-421 2 c8 -9 25 -14 44 -12 25 2 33 -2 44 -25 7 -15 16 -43 19 -62 4 -27 2
-35 -10 -35 -32 0 -44 11 -39 35 6 32 -5 75 -20 75 -11 0 -58 -50 -58 -62 0
-13 -25 -9 -45 6 -19 13 -18 15 8 55 30 45 38 49 57 25z m262 -27 c12 -20 4
-29 -27 -32 -17 -1 -45 -6 -62 -9 -31 -7 -33 -6 -33 18 0 20 7 27 33 34 38 11
79 6 89 -11z m2412 -28 c41 -27 44 -32 33 -50 -15 -24 -30 -24 -65 -2 -47 31
-50 36 -39 60 13 29 17 29 71 -8z m-222 -1 c-6 -6 -15 -8 -19 -4 -4 4 -1 11 7
16 19 12 27 3 12 -12z m-1614 -40 c-2 -13 -5 -22 -8 -20 -3 1 -26 -4 -52 -12
-45 -13 -48 -13 -54 6 -3 11 -4 21 -2 22 19 16 50 25 81 26 34 0 38 -2 35 -22z
m1616 -33 c3 -8 -5 -26 -19 -41 -14 -15 -21 -32 -18 -41 5 -13 1 -15 -20 -9
-17 4 -38 1 -57 -9 -36 -19 -40 -19 -40 0 0 19 47 38 76 31 25 -7 33 2 40 41
8 45 26 58 38 28z m-3464 -49 c0 -2 -7 -7 -16 -10 -8 -3 -12 -2 -9 4 6 10 25
14 25 6z m1190 -7 c0 -6 17 -9 43 -7 30 2 42 -1 42 -11 0 -10 -17 -15 -57 -16
-55 -3 -58 -2 -58 21 0 15 6 24 15 24 8 0 15 -5 15 -11z m667 -6 c3 -7 -10
-15 -30 -18 -47 -9 -80 -3 -84 15 -4 13 -3 13 6 0 9 -13 14 -13 38 1 33 18 65
19 70 2z m-717 -2 c0 -5 -6 -13 -13 -19 -15 -13 -97 -4 -97 10 0 6 6 8 13 5 8
-3 29 -2 48 3 47 11 49 11 49 1z m-199 -67 c-9 -28 -9 -29 -10 -3 -1 14 2 29
6 32 11 12 13 2 4 -29z m2309 6 c0 -5 -2 -10 -4 -10 -2 0 -11 -3 -19 -6 -8 -3
-17 2 -20 10 -5 12 0 16 18 16 14 0 25 -4 25 -10z m-1971 -30 c-27 -15 -82
-23 -75 -11 4 6 20 11 37 11 16 0 29 5 29 11 0 5 5 7 11 3 8 -5 8 -9 -2 -14z
m2141 -6 c0 -20 -4 -25 -16 -20 -9 3 -23 6 -32 7 -12 0 -10 3 6 9 12 5 22 14
22 20 0 5 5 10 10 10 6 0 10 -12 10 -26z m-380 -5 c0 -5 -15 -9 -32 -9 -31 1
-32 2 -15 15 19 14 47 10 47 -6z m-2105 -1 c18 -8 24 -16 19 -27 -4 -9 -7 -29
-8 -46 -1 -30 -15 -43 -48 -44 -14 -1 -18 7 -18 30 0 20 -4 28 -12 23 -6 -4
-4 3 5 17 9 13 17 31 17 41 0 21 10 22 45 6z m2305 8 c0 -2 -7 -6 -15 -10 -8
-3 -15 -1 -15 4 0 6 7 10 15 10 8 0 15 -2 15 -4z m-2412 -34 c-10 -2 -18 -10
-18 -18 0 -8 -4 -12 -10 -9 -5 3 -10 0 -11 -7 0 -10 -2 -10 -6 0 -6 15 38 53
52 44 5 -4 2 -8 -7 -10z m35 -2 c-6 -23 -33 -49 -33 -31 0 9 30 51 36 51 1 0
0 -9 -3 -20z m283 -45 c-5 -13 -13 -15 -38 -10 -53 12 -56 20 -8 25 53 6 54 6
46 -15z m2299 5 c3 -11 11 -20 16 -20 6 0 7 -4 4 -10 -3 -5 -10 -10 -15 -10
-14 0 -50 42 -44 52 10 15 33 8 39 -12z m-395 -11 c0 -5 -9 -9 -20 -9 -17 0
-19 2 -8 14 13 14 28 12 28 -5z m190 -40 c0 -5 -11 -9 -25 -9 -14 0 -25 6 -25
14 0 9 8 12 25 8 14 -2 25 -8 25 -13z m-102 -11 c19 -19 14 -28 -15 -28 -39 0
-54 -12 -57 -45 -2 -16 -8 -31 -14 -33 -12 -4 -11 36 1 55 4 6 3 14 -3 18 -18
11 -11 33 13 38 43 8 63 7 75 -5z m306 -4 c4 -11 1 -14 -11 -12 -9 2 -18 9
-21 16 -6 18 25 15 32 -4z m-2307 -19 c0 -8 -4 -15 -9 -15 -4 0 -8 7 -8 15 0
8 4 15 8 15 5 0 9 -7 9 -15z m476 8 c-7 -2 -19 -2 -25 0 -7 3 -2 5 12 5 14 0
19 -2 13 -5z m-516 -9 c-3 -3 -12 -4 -19 -1 -8 3 -5 6 6 6 11 1 17 -2 13 -5z
m1895 -14 c-17 -16 -21 -29 -17 -57 3 -28 0 -40 -15 -50 -11 -8 -20 -20 -20
-26 0 -7 -21 -21 -47 -30 -28 -10 -43 -13 -36 -6 10 10 9 15 -5 25 -16 13 -16
13 1 14 9 0 17 5 17 11 0 6 7 8 16 5 10 -4 13 -2 8 6 -5 7 1 9 19 6 35 -7 44
7 42 60 -1 43 11 61 44 62 10 0 8 -6 -7 -20z m-1239 -5 c-4 -13 -113 -19 -113
-6 0 5 17 12 38 14 54 6 77 3 75 -8z m-3 -66 l0 -40 -52 3 -53 3 -3 38 -3 37
55 0 56 0 0 -41z m1270 1 c0 -5 -4 -10 -10 -10 -5 0 -10 5 -10 10 0 6 5 10 10
10 6 0 10 -4 10 -10z m-85 -20 c3 -6 -1 -7 -9 -4 -18 7 -21 14 -7 14 6 0 13
-4 16 -10z m259 -16 c4 -10 -6 -25 -24 -41 -17 -13 -30 -31 -30 -39 0 -8 -4
-14 -9 -14 -5 0 -9 10 -8 23 0 12 -3 30 -7 40 -6 11 -4 17 6 17 7 0 19 9 26
20 13 21 37 18 46 -6z m-116 -31 c2 -7 -5 -16 -15 -20 -10 -3 -35 -17 -55 -30
-35 -21 -38 -27 -38 -68 0 -38 -3 -45 -19 -45 -11 0 -23 -4 -26 -10 -13 -21
-25 -9 -14 12 11 21 19 57 23 103 1 27 16 35 46 28 14 -3 22 -2 17 2 -4 5 1
17 10 27 19 21 64 21 71 1z m-2162 -80 c-2 -9 -8 -19 -14 -21 -14 -4 -15 0 -6
22 8 21 23 20 20 -1z m-219 1 c-3 -3 -12 -4 -19 -1 -8 3 -5 6 6 6 11 1 17 -2
13 -5z m2426 -1 c-7 -2 -19 -2 -25 0 -7 3 -2 5 12 5 14 0 19 -2 13 -5z m-1606
-39 c-3 -3 -12 -4 -19 -1 -8 3 -5 6 6 6 11 1 17 -2 13 -5z m1646 -22 c5 -2 -2
-9 -15 -16 -14 -7 -27 -26 -32 -49 -5 -20 -15 -37 -22 -37 -17 0 -27 32 -13
41 7 4 10 20 7 38 -2 17 0 32 6 35 11 4 54 -3 69 -12z m-122 -31 c-19 -15 -25
-29 -25 -60 -1 -26 -6 -41 -13 -41 -9 0 -12 12 -10 35 1 19 7 35 12 35 6 0 4
4 -4 9 -24 15 -5 41 31 41 l33 0 -24 -19z m67 -117 l22 -6 -25 -24 c-14 -13
-25 -31 -25 -40 0 -30 -13 -6 -15 28 -4 49 0 53 43 42z m-48 -44 c0 -5 -5 -10
-10 -10 -6 0 -20 -15 -31 -32 -12 -18 -19 -25 -15 -15 3 9 1 17 -3 17 -12 0
-23 29 -15 41 7 12 74 11 74 -1z m-2227 -157 c-7 -2 -19 -2 -25 0 -7 3 -2 5
12 5 14 0 19 -2 13 -5z m79 -4 c-15 -6 -30 -5 -40 1 -13 7 -8 9 23 9 35 0 37
-1 17 -10z"/>
<path d="M4610 2530 c0 -5 5 -10 10 -10 6 0 10 5 10 10 0 6 -4 10 -10 10 -5 0
-10 -4 -10 -10z"/>
<path d="M4680 2226 c0 -2 9 -6 20 -9 11 -3 18 -1 14 4 -5 9 -34 13 -34 5z"/>
<path d="M1849 1793 c-11 -13 -11 -15 -1 -9 8 5 19 1 28 -10 15 -18 15 -18 10
-1 -3 10 -6 23 -6 28 0 15 -16 10 -31 -8z"/>
<path d="M4215 1740 c-3 -5 -1 -10 4 -10 6 0 11 5 11 10 0 6 -2 10 -4 10 -3 0
-8 -4 -11 -10z"/>
<path d="M4325 1740 c-3 -5 -1 -10 4 -10 6 0 11 5 11 10 0 6 -2 10 -4 10 -3 0
-8 -4 -11 -10z"/>
<path d="M4280 1630 c0 -13 5 -20 13 -17 6 2 12 10 12 17 0 7 -6 15 -12 18 -8
2 -13 -5 -13 -18z"/>
<path d="M4320 1361 c0 -14 6 -21 18 -20 10 0 12 3 4 6 -6 2 -10 9 -7 13 3 5
1 11 -5 15 -5 3 -10 -3 -10 -14z"/>
<path d="M4336 1316 c3 -9 11 -16 16 -16 13 0 5 23 -10 28 -7 2 -10 -2 -6 -12z"/>
<path d="M4270 1291 c0 -6 4 -13 10 -16 6 -3 7 1 4 9 -7 18 -14 21 -14 7z"/>
<path d="M4310 1230 c0 -6 7 -10 15 -10 8 0 15 2 15 4 0 2 -7 6 -15 10 -8 3
-15 1 -15 -4z"/>
<path d="M2820 5211 c0 -5 -8 -12 -17 -14 -14 -4 -12 -5 5 -6 13 -1 22 5 22
14 0 8 -2 15 -5 15 -3 0 -5 -4 -5 -9z"/>
<path d="M2858 5203 c6 -2 18 -2 25 0 6 3 1 5 -13 5 -14 0 -19 -2 -12 -5z"/>
<path d="M2848 5183 c6 -2 18 -2 25 0 6 3 1 5 -13 5 -14 0 -19 -2 -12 -5z"/>
<path d="M2770 5061 c0 -25 6 -27 13 -6 4 8 2 17 -3 20 -6 4 -10 -3 -10 -14z"/>
<path d="M3760 5010 c0 -5 5 -10 10 -10 6 0 10 5 10 10 0 6 -4 10 -10 10 -5 0
-10 -4 -10 -10z"/>
<path d="M2751 4974 c0 -11 3 -14 6 -6 3 7 2 16 -1 19 -3 4 -6 -2 -5 -13z"/>
<path d="M2800 4809 c0 -18 2 -19 15 -9 8 7 15 16 15 21 0 5 -7 9 -15 9 -9 0
-15 -9 -15 -21z"/>
<path d="M3752 4811 c-11 -6 -10 -10 4 -15 9 -3 19 -4 22 -1 3 3 -1 5 -9 6 -8
1 -3 5 11 9 21 7 21 8 5 9 -11 0 -26 -3 -33 -8z"/>
<path d="M2942 4515 c0 -16 2 -22 5 -12 2 9 2 23 0 30 -3 6 -5 -1 -5 -18z"/>
<path d="M2884 4490 c4 -25 12 -63 18 -85 l11 -40 8 30 c11 46 10 108 -2 125
-7 11 -9 -1 -5 -45 l6 -60 -15 54 c-20 69 -30 80 -21 21z"/>
<path d="M1695 3730 c-3 -5 -1 -10 4 -10 6 0 11 5 11 10 0 6 -2 10 -4 10 -3 0
-8 -4 -11 -10z"/>
<path d="M1895 3600 c3 -5 8 -10 11 -10 2 0 4 5 4 10 0 6 -5 10 -11 10 -5 0
-7 -4 -4 -10z"/>
<path d="M1830 3590 c0 -5 5 -10 10 -10 6 0 10 5 10 10 0 6 -4 10 -10 10 -5 0
-10 -4 -10 -10z"/>
<path d="M1860 3574 c0 -7 27 -34 34 -34 13 0 5 16 -14 28 -11 7 -20 10 -20 6z"/>
<path d="M1911 3524 c0 -11 3 -14 6 -6 3 7 2 16 -1 19 -3 4 -6 -2 -5 -13z"/>
<path d="M1930 3499 c0 -5 5 -7 10 -4 6 3 10 8 10 11 0 2 -4 4 -10 4 -5 0 -10
-5 -10 -11z"/>
<path d="M1945 3217 c-4 -10 -5 -21 -1 -24 10 -10 18 4 13 24 -4 17 -4 17 -12
0z"/>
<path d="M1992 3096 c4 -5 0 -15 -10 -22 -15 -12 -14 -13 11 -14 31 0 35 12
10 31 -10 7 -15 9 -11 5z"/>
<path d="M1542 2976 c-113 -24 -152 -29 -148 -20 4 11 2 11 -14 2 -10 -7 -17
-14 -15 -17 3 -2 0 -10 -6 -17 -8 -9 -4 -16 16 -27 25 -13 33 -11 100 23 41
20 106 45 147 55 40 10 82 21 93 26 l20 8 -20 0 c-11 -1 -89 -15 -173 -33z"/>
<path d="M2065 2972 c-6 -4 -18 -19 -28 -34 -16 -26 -16 -28 4 -39 26 -14 35
-5 42 44 6 37 2 44 -18 29z"/>
<path d="M1088 2878 c-9 -46 12 -65 31 -29 8 14 6 22 -8 35 -17 16 -19 16 -23
-6z"/>
<path d="M1145 2858 c-27 -46 -30 -57 -7 -30 26 28 56 30 47 2 -5 -17 -2 -20
24 -20 23 0 37 9 57 35 32 42 28 56 -6 20 -29 -31 -42 -31 -55 -3 -15 34 -38
32 -60 -4z"/>
<path d="M1921 2879 c-13 -5 -22 -12 -19 -14 6 -6 58 12 58 20 0 7 -11 5 -39
-6z"/>
<path d="M1726 2816 c-16 -7 -25 -16 -20 -19 6 -3 28 3 49 13 46 21 18 26 -29
6z"/>
<path d="M1471 2813 c-1 -6 4 -15 9 -18 15 -9 12 -27 -2 -19 -8 4 -10 3 -5 -2
5 -5 14 -9 20 -9 7 0 12 -11 12 -24 0 -33 16 -36 70 -12 36 16 45 25 45 45 0
34 -14 40 -49 21 -41 -21 -66 -19 -84 8 -9 12 -16 17 -16 10z m133 -45 c-9
-14 -65 -39 -77 -35 -7 2 0 10 16 17 15 7 27 16 27 19 0 4 9 7 19 7 11 0 17
-4 15 -8z"/>
<path d="M1970 2709 c-14 -6 -33 -8 -42 -5 -11 2 -15 0 -12 -6 4 -6 -2 -8 -16
-3 -13 4 -20 3 -17 -2 4 -6 -12 -20 -33 -32 -47 -26 -54 -47 -10 -24 17 8 36
16 43 17 11 3 28 9 100 37 15 7 27 15 27 20 0 11 -8 11 -40 -2z"/>
<path d="M1530 2648 c0 -16 5 -28 10 -28 6 0 9 -4 8 -8 -2 -4 11 -24 27 -44
l30 -37 49 30 c26 17 46 33 43 36 -3 3 -21 -7 -40 -21 -19 -14 -39 -26 -45
-26 -15 0 -16 17 -2 25 6 4 8 10 5 15 -3 5 8 11 25 15 18 4 27 11 23 18 -4 6
0 8 10 4 11 -4 14 -2 10 9 -7 18 -10 18 -40 -6 -36 -28 -54 -25 -85 12 l-27
33 -1 -27z"/>
<path d="M2120 2622 c0 -5 -20 -19 -45 -31 -42 -21 -63 -40 -31 -28 10 4 13 1
9 -9 -3 -7 -10 -14 -16 -14 -7 0 -8 -3 -1 -10 6 -6 23 -6 48 1 21 6 47 9 57 6
13 -4 16 0 14 15 -3 11 -8 25 -13 32 -5 6 -8 19 -7 29 2 9 -1 17 -6 17 -5 0
-9 -4 -9 -8z"/>
<path d="M921 2536 c-9 -11 -8 -15 5 -20 9 -4 19 -4 22 -1 3 3 0 5 -6 5 -6 0
-9 7 -6 15 8 19 0 19 -15 1z"/>
<path d="M1056 2514 c-10 -37 -1 -41 39 -19 41 21 44 30 13 39 -38 10 -46 7
-52 -20z"/>
<path d="M995 2510 c-3 -5 -1 -10 4 -10 6 0 11 5 11 10 0 6 -2 10 -4 10 -3 0
-8 -4 -11 -10z"/>
<path d="M1926 2508 c3 -4 -11 -15 -30 -25 -20 -9 -36 -20 -36 -25 0 -15 38
-8 74 13 41 24 47 48 12 45 -13 0 -22 -4 -20 -8z"/>
<path d="M1168 2485 c-14 -14 6 -54 29 -60 24 -6 63 16 63 35 0 17 -78 38 -92
25z"/>
<path d="M1630 2456 c0 -15 67 -106 79 -106 17 0 91 61 91 75 0 23 -18 18 -50
-15 -29 -30 -42 -37 -37 -22 3 11 -60 82 -73 82 -5 0 -10 -6 -10 -14z"/>
<path d="M1436 2407 c2 -7 -9 -26 -25 -41 l-30 -29 -36 28 c-41 30 -50 28 -41
-10 4 -16 19 -32 40 -42 l34 -16 34 38 c18 21 32 42 31 47 -2 4 1 8 7 8 5 0 7
7 4 15 -4 8 -10 15 -15 15 -4 0 -6 -6 -3 -13z"/>
<path d="M929 2376 c9 -11 8 -15 -4 -20 -17 -6 -17 -36 0 -48 15 -11 65 -10
65 2 0 6 5 10 11 10 7 0 9 -10 7 -24 -4 -22 -1 -25 34 -31 l39 -7 -2 -49 c-2
-27 0 -52 4 -56 4 -3 7 3 7 14 0 16 9 23 37 30 26 6 45 19 60 42 l23 34 -27
17 c-16 9 -66 22 -112 28 -84 12 -111 23 -111 47 0 7 -7 16 -16 19 -24 9 -28
7 -15 -8z"/>
<path d="M1714 2315 c-6 -16 -3 -26 54 -167 7 -16 18 -28 27 -28 8 0 15 -7 15
-16 0 -11 5 -14 16 -10 12 5 14 1 9 -15 -5 -16 -4 -19 6 -14 8 6 11 4 7 -6 -4
-10 1 -15 13 -16 10 -1 19 2 19 7 0 4 29 22 64 39 50 24 64 36 63 51 -2 26
-23 25 -72 -5 -22 -14 -43 -25 -47 -25 -4 0 -20 23 -34 52 l-26 52 26 21 c50
40 28 60 -28 26 -36 -23 -44 -20 -75 32 -25 41 -29 44 -37 22z"/>
<path d="M1433 2258 c-6 -7 -7 -22 -3 -33 4 -11 5 -25 3 -31 -2 -6 12 -25 31
-42 l36 -31 33 19 c32 19 67 74 67 105 0 25 -16 17 -53 -25 -19 -22 -40 -40
-46 -40 -12 0 -36 40 -33 56 4 19 -24 36 -35 22z"/>
<path d="M1362 2233 c1 -17 -6 -39 -15 -48 -15 -15 -20 -15 -62 4 -25 11 -45
19 -46 18 -10 -25 -3 -40 24 -53 18 -9 33 -17 34 -18 1 -1 -4 -25 -11 -53 -8
-29 -11 -55 -7 -59 9 -9 -55 4 -112 24 -34 12 -50 13 -58 5 -17 -17 -4 -29 46
-42 38 -9 48 -17 57 -41 11 -34 22 -37 45 -15 17 18 55 110 47 117 -2 3 2 11
11 18 8 7 15 18 15 25 0 8 3 15 8 17 16 7 42 100 33 117 -8 12 -10 9 -9 -16z"/>
<path d="M995 2230 c3 -5 8 -10 11 -10 2 0 4 5 4 10 0 6 -5 10 -11 10 -5 0 -7
-4 -4 -10z"/>
<path d="M989 2124 c0 -11 -2 -27 -4 -37 -2 -12 6 -22 22 -30 23 -10 28 -8 49
16 27 31 31 57 10 57 -7 0 -28 3 -45 6 -26 5 -31 3 -32 -12z"/>
<path d="M1472 2084 c-12 -8 -27 -25 -34 -37 -10 -21 -10 -21 7 -7 17 14 18
14 6 -7 -15 -30 -20 -29 -70 8 -57 40 -76 32 -29 -13 49 -47 92 -63 110 -40
11 13 11 14 0 8 -8 -5 0 11 17 34 44 61 41 88 -7 54z"/>
<path d="M1526 2089 c4 -7 7 -24 6 -40 0 -18 11 -40 36 -67 31 -33 42 -39 65
-35 15 3 32 14 38 24 5 11 7 19 5 19 -3 0 -1 11 4 24 12 34 3 38 -39 17 -20
-10 -46 -22 -58 -25 -21 -7 -23 -4 -23 24 0 35 -15 70 -31 70 -6 0 -7 -5 -3
-11z"/>
<path d="M1765 2010 c-3 -6 1 -7 9 -4 18 7 21 14 7 14 -6 0 -13 -4 -16 -10z"/>
<path d="M1312 1991 c2 -7 7 -12 11 -12 12 1 9 15 -3 20 -7 2 -11 -2 -8 -8z"/>
<path d="M880 1949 c0 -9 -3 -24 -6 -32 -8 -23 47 -33 63 -12 15 22 -2 52 -34
58 -17 3 -23 0 -23 -14z"/>
<path d="M2370 1961 c0 -6 9 -9 20 -8 11 1 20 5 20 9 0 4 -9 8 -20 8 -11 0
-20 -4 -20 -9z"/>
<path d="M2333 1945 c-3 -9 -3 -18 0 -21 9 -9 27 6 27 22 0 19 -19 18 -27 -1z"/>
<path d="M2295 1933 c2 -10 4 -21 4 -25 1 -5 5 -8 11 -8 13 0 6 43 -8 48 -6 2
-9 -5 -7 -15z"/>
<path d="M2233 1913 c1 -18 5 -33 9 -33 10 0 9 19 -2 45 -7 16 -9 14 -7 -12z"/>
<path d="M1210 1919 c0 -5 5 -7 10 -4 6 3 10 8 10 11 0 2 -4 4 -10 4 -5 0 -10
-5 -10 -11z"/>
<path d="M976 1898 c-9 -35 -8 -38 17 -47 17 -7 28 -3 50 17 l27 26 -31 13
c-44 18 -56 16 -63 -9z"/>
<path d="M2138 1903 c7 -3 16 -2 19 1 4 3 -2 6 -13 5 -11 0 -14 -3 -6 -6z"/>
<path d="M1100 1868 c1 -34 34 -70 57 -61 18 7 52 42 53 54 0 4 -17 10 -37 13
-21 4 -46 9 -55 12 -14 4 -18 0 -18 -18z"/>
<path d="M2308 1873 c4 -10 7 -28 7 -40 -2 -23 25 -40 54 -34 7 1 10 -2 7 -8
-8 -12 55 18 69 33 11 12 13 41 4 50 -3 4 -25 -1 -49 -9 -56 -20 -67 -19 -75
5 -3 11 -11 20 -16 20 -6 0 -6 -7 -1 -17z"/>
<path d="M3544 1833 c3 -10 8 -31 12 -47 l7 -29 15 37 c13 32 13 39 1 47 -23
15 -41 10 -35 -8z"/>
<path d="M3995 1830 c-3 -5 1 -10 9 -10 9 0 16 5 16 10 0 6 -4 10 -9 10 -6 0
-13 -4 -16 -10z"/>
<path d="M2640 1811 c0 -12 5 -21 10 -21 6 0 10 6 10 14 0 8 -4 18 -10 21 -5
3 -10 -3 -10 -14z"/>
<path d="M2860 1823 c0 -5 5 -15 10 -23 8 -12 10 -11 10 8 0 12 -4 22 -10 22
-5 0 -10 -3 -10 -7z"/>
<path d="M832 1778 c3 -7 15 -15 28 -16 16 -3 19 -6 10 -12 -17 -10 -5 -60 15
-60 22 0 39 37 22 47 -8 4 -19 18 -26 31 -12 23 -56 32 -49 10z"/>
<path d="M2498 1769 c-3 -8 0 -26 8 -40 14 -25 17 -11 5 31 -5 19 -8 21 -13 9z"/>
<path d="M2645 1770 c3 -5 8 -10 11 -10 2 0 4 5 4 10 0 6 -5 10 -11 10 -5 0
-7 -4 -4 -10z"/>
<path d="M3580 1770 c0 -5 5 -10 10 -10 6 0 10 5 10 10 0 6 -4 10 -10 10 -5 0
-10 -4 -10 -10z"/>
<path d="M3579 1748 c-19 -7 -19 -8 -2 -35 10 -15 17 -29 15 -30 -1 -2 2 -11
8 -21 10 -16 10 -16 8 2 -2 14 6 22 35 30 21 6 38 14 38 19 -1 4 -1 16 -1 27
0 17 -6 19 -40 17 -22 -1 -49 -5 -61 -9z"/>
<path d="M2467 1663 c-12 -12 -34 -17 -77 -18 -55 0 -59 -2 -53 -20 3 -11 6
-29 7 -40 1 -21 3 -21 109 -14 32 3 46 8 42 17 -2 6 1 12 8 13 7 0 3 4 -8 9
-11 5 -14 9 -6 9 11 1 11 4 1 16 -7 8 -10 22 -6 30 7 19 4 19 -17 -2z"/>
<path d="M794 1636 c0 -19 4 -32 9 -29 10 6 9 51 -2 57 -4 3 -8 -10 -7 -28z"/>
<path d="M1336 1661 c-3 -5 1 -12 10 -15 20 -8 29 -1 19 13 -8 13 -22 14 -29
2z"/>
<path d="M2058 1653 c7 -3 16 -2 19 1 4 3 -2 6 -13 5 -11 0 -14 -3 -6 -6z"/>
<path d="M2002 1638 c6 -18 25 -20 31 -3 5 10 0 15 -14 15 -12 0 -19 -5 -17
-12z"/>
<path d="M2817 1629 c4 -13 8 -18 11 -10 2 7 -1 18 -6 23 -8 8 -9 4 -5 -13z"/>
<path d="M3485 1605 c11 -9 19 -22 17 -28 -2 -7 0 -8 4 -4 11 11 14 37 4 37
-5 0 -17 3 -27 6 -16 5 -16 4 2 -11z"/>
<path d="M2895 1590 c-3 -5 -1 -10 4 -10 6 0 11 5 11 10 0 6 -2 10 -4 10 -3 0
-8 -4 -11 -10z"/>
<path d="M3320 1582 c0 -42 26 -130 42 -144 29 -25 73 -23 90 5 26 42 18 52
-37 49 l-51 -4 -2 38 c-3 38 -16 64 -33 64 -5 0 -9 -4 -9 -8z"/>
<path d="M1495 1556 c-14 -13 -22 -27 -17 -30 6 -3 15 1 22 9 11 13 16 13 42
-1 l31 -16 -22 31 c-12 17 -24 31 -26 31 -2 0 -16 -11 -30 -24z"/>
<path d="M2495 1550 c4 -6 11 -8 16 -5 14 9 11 15 -7 15 -8 0 -12 -5 -9 -10z"/>
<path d="M897 1498 c-6 -41 -2 -48 27 -48 23 0 66 37 66 57 0 14 -24 23 -60
23 -24 0 -28 -5 -33 -32z"/>
<path d="M2544 1519 c-3 -5 6 -9 20 -9 31 0 34 6 6 13 -11 3 -23 1 -26 -4z"/>
<path d="M3211 1514 c0 -11 3 -14 6 -6 3 7 2 16 -1 19 -3 4 -6 -2 -5 -13z"/>
<path d="M1561 1478 l-44 -32 -23 27 c-13 15 -30 27 -39 27 -17 0 53 -75 90
-96 19 -12 19 -12 -6 -22 -15 -6 -35 -22 -47 -36 -23 -30 -40 -33 -58 -9 -18
25 -24 14 -17 -34 5 -37 10 -44 44 -57 45 -18 89 -21 89 -6 0 6 -5 10 -11 10
-8 0 -8 5 1 15 7 8 9 15 4 15 -4 0 3 11 16 25 13 14 19 25 14 26 -5 0 2 5 15
10 19 7 22 12 13 21 -16 16 -15 31 2 25 17 -7 30 19 15 29 -5 3 -6 11 -2 17
12 17 10 70 -2 74 -6 2 -30 -11 -54 -29z"/>
<path d="M1016 1467 c-12 -45 39 -66 92 -38 46 24 22 55 -45 57 -34 1 -42 -2
-47 -19z"/>
<path d="M2580 1480 c0 -12 17 -12 45 0 17 7 15 9 -12 9 -18 1 -33 -3 -33 -9z"/>
<path d="M3216 1453 c-3 -6 -25 -15 -50 -18 -25 -4 -46 -11 -46 -16 0 -4 -17
-11 -37 -15 -21 -4 -53 -15 -72 -25 -30 -16 -51 -21 -136 -33 -14 -2 -20 -11
-20 -27 0 -22 4 -24 55 -25 30 -1 60 2 65 6 9 7 128 38 170 44 5 0 18 9 29 19
11 9 24 17 28 17 5 0 6 5 3 10 -10 16 19 22 49 10 34 -13 74 10 72 42 -1 19
-7 22 -53 22 -32 1 -55 -4 -57 -11z"/>
<path d="M762 1443 c4 -22 21 -42 31 -36 4 2 7 15 7 29 0 18 -5 24 -20 24 -14
0 -20 -6 -18 -17z"/>
<path d="M2940 1451 c-15 -4 -26 -15 -28 -29 -3 -18 2 -22 22 -22 14 0 26 4
26 10 0 5 15 14 33 19 29 8 30 9 7 11 l-25 2 25 8 c24 8 24 8 -5 8 -16 0 -41
-3 -55 -7z"/>
<path d="M1430 1432 c0 -8 43 -32 57 -32 3 0 -2 9 -12 20 -18 20 -45 27 -45
12z"/>
<path d="M1411 1406 c-8 -10 -9 -16 -1 -21 5 -3 10 -2 10 4 0 5 9 8 20 6 25
-5 26 1 1 14 -14 8 -22 7 -30 -3z"/>
<path d="M3701 1394 c-1 -36 -14 -44 -71 -44 -24 0 -42 -6 -47 -14 -5 -9 -30
-17 -62 -20 -29 -2 -56 -7 -59 -10 -3 -3 0 -18 7 -32 10 -23 15 -25 44 -18 17
5 44 8 59 9 19 0 24 3 17 12 -14 16 1 22 64 25 36 1 53 6 50 14 -2 7 16 14 49
20 44 7 54 13 56 32 3 20 0 22 -47 22 -39 0 -51 4 -54 18 -3 9 -5 3 -6 -14z"/>
<path d="M1182 1376 c2 -33 4 -35 51 -41 52 -8 59 -5 64 24 2 15 -8 23 -44 35
-68 23 -74 21 -71 -18z"/>
<path d="M2915 1380 c-3 -5 1 -10 10 -10 9 0 13 5 10 10 -3 6 -8 10 -10 10 -2
0 -7 -4 -10 -10z"/>
<path d="M2398 1343 c7 -3 16 -2 19 1 4 3 -2 6 -13 5 -11 0 -14 -3 -6 -6z"/>
<path d="M1556 1277 c3 -10 9 -15 12 -12 3 3 0 11 -7 18 -10 9 -11 8 -5 -6z"/>
<path d="M2526 1282 c-3 -5 -3 -18 0 -29 7 -26 50 -34 108 -21 22 5 42 6 43 1
8 -22 22 -35 32 -29 7 5 2 19 -16 43 -26 34 -29 35 -76 29 -27 -3 -58 -1 -68
4 -10 6 -20 6 -23 2z"/>
<path d="M3311 1271 c-8 -13 -8 -22 -1 -26 6 -4 7 -11 4 -17 -4 -7 8 -8 37 -3
73 11 80 15 77 38 -3 19 -10 22 -55 25 -43 3 -54 0 -62 -17z"/>
<path d="M989 1261 c0 -9 -2 -23 -3 -31 -3 -12 8 -15 52 -15 52 0 56 2 63 28
4 15 4 27 1 28 -4 0 -31 2 -59 3 -43 2 -53 0 -54 -13z"/>
<path d="M1388 1260 c-7 -24 -3 -38 8 -28 3 4 4 17 2 30 l-3 23 -7 -25z"/>
<path d="M2926 1254 c-10 -26 4 -36 22 -16 9 10 13 12 8 5 -5 -8 -4 -13 2 -13
6 0 16 9 22 20 10 18 8 20 -19 20 -17 0 -31 -6 -35 -16z"/>
<path d="M3646 1261 c-4 -7 -5 -15 -2 -18 9 -9 19 4 14 18 -4 11 -6 11 -12 0z"/>
<path d="M3178 1228 c-10 -10 -18 -13 -18 -8 0 16 -27 12 -34 -5 -3 -8 -13
-15 -23 -14 -16 0 -15 1 2 9 13 5 4 7 -27 5 -32 -3 -48 0 -48 8 0 7 -6 3 -12
-8 -19 -32 -39 -43 -95 -47 -61 -5 -64 -7 -57 -34 7 -25 63 -52 73 -35 4 6 30
16 57 21 76 14 137 33 167 53 51 33 107 18 107 -30 0 -13 4 -23 9 -23 13 0 10
43 -3 52 -6 4 -3 14 8 27 10 11 16 27 12 36 -8 21 -95 16 -118 -7z"/>
<path d="M2980 1214 c0 -8 5 -12 10 -9 6 4 8 11 5 16 -9 14 -15 11 -15 -7z"/>
<path d="M2735 1210 c3 -5 10 -10 16 -10 5 0 9 5 9 10 0 6 -7 10 -16 10 -8 0
-12 -4 -9 -10z"/>
<path d="M1179 1208 c-10 -42 -7 -49 17 -58 14 -6 37 -10 52 -10 48 0 53 -9
41 -79 l-11 -62 -65 7 c-53 5 -65 4 -61 -7 5 -16 103 -43 124 -35 8 3 14 20
14 41 0 19 5 35 11 35 6 0 9 6 6 13 -6 17 1 28 34 49 33 21 48 92 17 83 -15
-5 -116 8 -160 21 -10 3 -18 4 -19 2z"/>
<path d="M1085 1143 c-5 -10 -10 -27 -12 -37 -6 -33 -23 -47 -43 -36 -28 15
-60 12 -60 -5 0 -9 20 -20 52 -30 69 -20 71 -20 66 16 -3 20 0 33 9 36 7 3 11
9 8 13 -3 5 -1 20 5 34 7 20 6 26 -4 26 -8 0 -17 -8 -21 -17z"/>
<path d="M2448 1153 c6 -2 18 -2 25 0 6 3 1 5 -13 5 -14 0 -19 -2 -12 -5z"/>
<path d="M2250 1140 c0 -5 7 -10 16 -10 8 0 12 5 9 10 -3 6 -10 10 -16 10 -5
0 -9 -4 -9 -10z"/>
<path d="M2753 1133 c-48 -4 -53 -6 -53 -27 0 -17 7 -26 25 -30 27 -7 35 -40
13 -49 -8 -4 -9 -6 -2 -6 6 -1 17 6 24 14 7 8 19 15 26 15 8 0 14 7 14 15 0 9
7 18 15 21 18 7 20 55 3 52 -7 -1 -37 -3 -65 -5z"/>
<path d="M3128 1123 c7 -3 16 -2 19 1 4 3 -2 6 -13 5 -11 0 -14 -3 -6 -6z"/>
<path d="M3450 1123 c0 -8 -23 -11 -114 -16 -44 -2 -53 -5 -46 -17 4 -8 6 -20
3 -26 -2 -6 7 -16 21 -23 19 -11 31 -11 60 -1 20 6 42 10 49 8 7 -3 19 3 27
12 17 18 24 70 9 70 -5 0 -9 -3 -9 -7z"/>
<path d="M3100 1109 c0 -5 9 -9 20 -9 11 0 20 2 20 4 0 2 -9 6 -20 9 -11 3
-20 1 -20 -4z"/>
<path d="M2430 1089 c0 -11 5 -17 10 -14 6 3 10 13 10 21 0 8 -4 14 -10 14 -5
0 -10 -9 -10 -21z"/>
<path d="M3647 1093 c-4 -3 -7 -11 -7 -17 0 -6 5 -5 12 2 6 6 9 14 7 17 -3 3
-9 2 -12 -2z"/>
<path d="M727 1073 c-9 -15 -2 -88 8 -88 13 0 19 75 7 87 -5 5 -12 6 -15 1z"/>
<path d="M3248 1064 c-3 -2 -22 -6 -41 -8 -20 -2 -44 -9 -53 -17 -9 -7 -34
-14 -55 -14 -38 0 -39 0 -39 -37 0 -24 5 -38 13 -38 27 0 87 22 82 30 -3 4 8
11 25 14 16 3 44 9 60 12 23 4 30 11 30 29 0 23 -12 39 -22 29z"/>
<path d="M2745 1000 c3 -5 8 -10 11 -10 2 0 4 5 4 10 0 6 -5 10 -11 10 -5 0
-7 -4 -4 -10z"/>
<path d="M1060 980 c-8 -5 -12 -11 -10 -14 3 -2 14 2 24 10 22 15 10 19 -14 4z"/>
<path d="M2919 976 c-2 -3 -22 -7 -44 -10 -60 -7 -74 -15 -68 -37 4 -15 14
-19 53 -19 27 0 55 -3 64 -6 13 -5 16 2 16 35 0 36 -8 50 -21 37z"/>
<path d="M2253 963 c9 -2 25 -2 35 0 9 3 1 5 -18 5 -19 0 -27 -2 -17 -5z"/>
<path d="M2108 933 c7 -3 16 -2 19 1 4 3 -2 6 -13 5 -11 0 -14 -3 -6 -6z"/>
<path d="M950 870 c0 -40 0 -40 38 -40 73 0 83 37 16 65 -51 21 -54 20 -54
-25z"/>
<path d="M3365 891 c-27 -10 -44 -20 -38 -24 13 -8 110 19 118 33 9 14 -22 10
-80 -9z"/>
<path d="M2893 883 c-13 -2 -23 -11 -23 -18 0 -17 17 -28 24 -16 4 5 0 12 -6
14 -7 3 -3 6 9 6 12 1 25 6 28 11 3 6 3 9 -2 9 -4 -1 -18 -4 -30 -6z"/>
<path d="M2997 870 c-9 -9 -17 -22 -17 -30 0 -8 -9 -11 -25 -8 -20 4 -25 1
-25 -17 0 -18 -9 -23 -64 -34 -53 -11 -64 -16 -63 -32 1 -14 9 -19 33 -19 17
0 37 -6 43 -14 10 -11 4 -16 -31 -27 -46 -15 -66 -49 -29 -49 12 0 21 4 21 9
0 5 13 12 30 16 29 6 33 14 43 95 3 18 84 27 99 12 6 -6 21 -7 37 -2 14 5 45
14 69 20 27 7 42 16 42 26 0 13 -8 15 -50 9 l-50 -7 0 34 c0 21 -3 28 -9 20
-7 -11 -11 -11 -22 1 -12 11 -17 11 -32 -3z"/>
<path d="M3237 870 c-58 -10 -66 -16 -46 -35 13 -13 21 -13 59 -2 28 8 46 19
48 30 2 9 0 16 -5 16 -4 -1 -30 -5 -56 -9z"/>
<path d="M826 835 c4 -8 8 -15 10 -15 2 0 4 7 4 15 0 8 -4 15 -10 15 -5 0 -7
-7 -4 -15z"/>
<path d="M1158 823 c-2 -10 -2 -30 0 -44 3 -23 9 -26 48 -27 33 -2 44 2 44 13
0 9 9 15 23 16 12 0 16 3 10 6 -7 2 -13 10 -13 18 0 7 -13 15 -29 18 -16 3
-40 9 -54 12 -19 5 -26 3 -29 -12z"/>
<path d="M2717 827 c-3 -8 1 -14 8 -14 7 0 11 6 8 14 -3 7 -6 13 -8 13 -2 0
-5 -6 -8 -13z"/>
<path d="M3538 803 c7 -3 16 -2 19 1 4 3 -2 6 -13 5 -11 0 -14 -3 -6 -6z"/>
<path d="M2940 724 c0 -8 5 -12 10 -9 6 3 10 10 10 16 0 5 -4 9 -10 9 -5 0
-10 -7 -10 -16z"/>
<path d="M1286 714 c-10 -25 -1 -27 19 -4 15 17 16 20 3 20 -9 0 -19 -7 -22
-16z"/>
<path d="M3020 708 c0 -9 5 -20 10 -23 13 -8 13 5 0 25 -8 13 -10 13 -10 -2z"/>
<path d="M3530 700 c0 -5 4 -10 9 -10 6 0 13 5 16 10 3 6 -1 10 -9 10 -9 0
-16 -4 -16 -10z"/>
<path d="M1050 691 c-89 -6 -95 -7 -98 -28 -3 -22 0 -23 58 -23 51 0 63 -3 67
-18 3 -14 12 -17 34 -14 16 2 27 8 24 12 -3 4 2 10 10 14 15 5 22 68 8 64 -5
-1 -51 -4 -103 -7z"/>
<path d="M1503 685 c-9 -26 4 -29 33 -6 l27 21 -27 0 c-15 0 -29 -7 -33 -15z"/>
<path d="M3536 655 c-3 -8 -1 -15 4 -15 6 0 10 7 10 15 0 8 -2 15 -4 15 -2 0
-6 -7 -10 -15z"/>
<path d="M807 643 c12 -2 24 -12 26 -21 3 -12 5 -10 6 6 1 18 -4 22 -26 21
-23 -1 -24 -2 -6 -6z"/>
<path d="M1501 634 c0 -11 3 -14 6 -6 3 7 2 16 -1 19 -3 4 -6 -2 -5 -13z"/>
<path d="M1224 633 c4 -5 22 -13 39 -19 28 -10 32 -16 31 -46 -1 -19 -4 -47
-8 -63 -7 -26 -9 -27 -54 -22 -26 2 -55 8 -64 12 -14 6 -18 2 -18 -18 0 -13 6
-37 14 -51 l13 -26 17 25 c15 23 23 25 68 23 l51 -3 12 57 c6 32 19 66 28 76
28 30 20 38 -47 50 -74 14 -92 15 -82 5z"/>
<path d="M2808 623 c7 -3 16 -2 19 1 4 3 -2 6 -13 5 -11 0 -14 -3 -6 -6z"/>
<path d="M1927 603 c-11 -10 -8 -43 3 -43 6 0 10 11 10 25 0 26 -2 29 -13 18z"/>
<path d="M1215 580 c-8 -13 4 -32 16 -25 12 8 12 35 0 35 -6 0 -13 -4 -16 -10z"/>
<path d="M3410 583 c-59 -9 -70 -14 -70 -32 0 -10 8 -26 19 -35 17 -16 19 -16
26 1 5 10 8 21 7 25 -1 4 14 12 33 18 19 6 33 16 30 21 -4 5 -9 8 -13 8 -4 -1
-18 -3 -32 -6z"/>
<path d="M2245 550 c-3 -5 -2 -10 4 -10 5 0 13 5 16 10 3 6 2 10 -4 10 -5 0
-13 -4 -16 -10z"/>
<path d="M2885 540 c-3 -5 -2 -10 4 -10 5 0 13 5 16 10 3 6 2 10 -4 10 -5 0
-13 -4 -16 -10z"/>
<path d="M2815 530 c-13 -6 -15 -9 -5 -9 8 0 22 4 30 9 18 12 2 12 -25 0z"/>
<path d="M3243 528 c-24 -5 -43 -12 -43 -16 0 -4 9 -20 19 -36 19 -28 19 -28
23 -6 2 15 14 26 37 34 37 12 54 37 24 35 -10 -1 -37 -5 -60 -11z"/>
<path d="M2890 509 c0 -5 5 -7 10 -4 6 3 10 8 10 11 0 2 -4 4 -10 4 -5 0 -10
-5 -10 -11z"/>
<path d="M993 503 c-47 -4 -53 -7 -53 -27 0 -34 25 -63 42 -49 7 7 25 13 40
15 34 5 57 24 54 46 -3 19 -9 20 -83 15z"/>
<path d="M3145 495 c-5 -2 -29 -9 -52 -15 -24 -6 -43 -15 -43 -20 0 -24 104 0
114 26 5 14 1 16 -19 9z"/>
<path d="M2513 473 c-3 -10 -7 -21 -9 -24 -2 -3 3 -6 9 -6 7 0 13 11 13 24 0
27 -4 29 -13 6z"/>
<path d="M2810 470 c0 -5 5 -10 10 -10 6 0 10 5 10 10 0 6 -4 10 -10 10 -5 0
-10 -4 -10 -10z"/>
<path d="M3310 470 c0 -5 7 -7 15 -4 8 4 15 8 15 10 0 2 -7 4 -15 4 -8 0 -15
-4 -15 -10z"/>
<path d="M2895 455 c-6 -8 -29 -16 -52 -17 -24 -2 -43 -8 -43 -14 0 -7 -9 -14
-20 -17 -38 -10 -21 -27 26 -27 44 0 46 -1 42 -24 -3 -14 -1 -31 3 -38 7 -10
9 -10 9 0 0 6 6 12 14 12 23 0 30 20 15 46 -7 13 -10 26 -7 29 10 10 108 24
125 18 13 -5 15 -2 10 11 -4 10 -7 21 -7 25 0 5 -21 4 -46 -2 -33 -8 -47 -8
-53 1 -5 8 -9 7 -16 -3z"/>
<path d="M3455 453 c-45 -6 -77 -25 -72 -43 3 -13 -10 -19 -68 -29 -59 -10
-73 -15 -71 -29 4 -22 76 -17 126 8 19 10 61 26 93 35 50 14 56 18 47 34 -5
10 -6 21 -3 25 6 6 2 6 -52 -1z"/>
<path d="M2609 391 c11 -7 9 -10 -10 -13 -13 -1 -25 -11 -27 -20 -3 -15 4 -18
47 -18 39 0 50 -4 54 -17 3 -14 6 -12 17 10 20 41 4 61 -51 64 -29 2 -39 0
-30 -6z"/>
<path d="M3030 390 c-9 -6 -10 -10 -3 -10 6 0 15 5 18 10 8 12 4 12 -15 0z"/>
<path d="M947 373 c-6 -10 -2 -44 6 -63 6 -12 18 -15 45 -12 20 3 35 2 32 -1
-3 -4 -22 -7 -43 -9 -22 -1 -37 -7 -37 -15 0 -18 37 -35 61 -28 11 4 26 1 34
-5 12 -10 19 -8 35 11 24 30 25 36 1 48 -10 6 -22 26 -25 46 -7 34 -8 35 -56
35 -27 0 -51 -3 -53 -7z"/>
<path d="M2455 372 c-33 -2 -62 -8 -66 -13 -7 -12 -38 -18 -116 -26 -31 -3
-53 -10 -53 -16 0 -18 50 -62 51 -46 0 8 5 4 11 -8 20 -41 53 -23 64 35 8 39
14 41 94 31 69 -8 84 -3 78 27 -3 17 -11 19 -63 16z"/>
<path d="M3143 341 c-40 -14 -73 -31 -73 -38 0 -7 -4 -13 -10 -13 -20 0 -9
-27 15 -38 15 -7 25 -20 25 -32 0 -11 4 -20 9 -20 13 0 20 25 15 47 -4 16 4
24 43 39 61 25 77 24 81 -2 2 -18 -3 -23 -31 -28 -38 -7 -63 -29 -52 -46 10
-16 22 -12 28 11 4 14 11 20 20 16 8 -3 20 0 26 6 8 8 11 7 11 -6 0 -9 5 -17
11 -17 6 0 8 7 5 16 -3 9 -6 31 -6 50 0 20 -4 33 -9 29 -9 -5 -38 35 -32 43 7
10 -10 6 -76 -17z"/>
<path d="M3378 353 c24 -10 11 -30 -25 -39 -34 -8 -38 -12 -38 -41 0 -18 5
-33 10 -33 6 1 9 12 7 26 -2 17 1 25 10 23 26 -3 39 1 33 11 -3 6 -2 10 4 10
5 0 13 -4 16 -10 10 -16 25 -12 19 5 -4 8 -1 15 5 15 6 0 3 9 -6 20 -10 11
-24 20 -33 19 -10 0 -11 -2 -2 -6z"/>
<path d="M3550 346 c0 -8 4 -17 9 -20 5 -4 7 3 4 14 -6 23 -13 26 -13 6z"/>
<path d="M2768 323 c7 -3 16 -2 19 1 4 3 -2 6 -13 5 -11 0 -14 -3 -6 -6z"/>
<path d="M3473 323 c-21 -8 -15 -22 7 -16 11 3 20 9 20 14 0 10 -8 10 -27 2z"/>
<path d="M2875 310 c3 -5 8 -10 11 -10 2 0 4 5 4 10 0 6 -5 10 -11 10 -5 0 -7
-4 -4 -10z"/>
<path d="M2935 283 c-49 -6 -60 -12 -47 -25 6 -6 8 -17 5 -24 -3 -8 1 -14 11
-14 8 0 22 -12 30 -27 l14 -28 -44 0 c-39 0 -75 -17 -63 -29 8 -8 49 6 44 15
-3 4 15 6 40 2 48 -5 51 -1 46 58 -1 9 7 19 19 22 14 3 20 13 20 31 0 27 -4
28 -75 19z"/>
<path d="M1840 266 c0 -2 7 -7 16 -10 8 -3 12 -2 9 4 -6 10 -25 14 -25 6z"/>
<path d="M3485 260 c-11 -5 -32 -9 -47 -9 -18 -1 -28 -6 -28 -16 0 -10 -10
-15 -32 -14 -65 2 -117 -12 -120 -33 -2 -10 -5 -19 -8 -20 -85 -15 -125 -27
-125 -36 0 -6 -6 -17 -13 -24 -10 -10 -14 -10 -21 0 -11 18 -82 11 -103 -10
-37 -37 -6 -78 58 -77 21 0 33 3 27 6 -21 8 -15 28 17 51 35 26 63 28 81 6 14
-17 13 -18 -38 -51 -16 -10 -12 -12 23 -12 48 -1 59 6 41 27 -10 13 -9 14 2 7
11 -6 13 -2 8 20 -4 22 1 35 22 55 24 25 28 26 59 13 41 -17 41 -28 -2 -29
-19 0 -41 -6 -50 -13 -18 -15 -10 -41 13 -41 14 0 14 2 1 10 -12 8 -12 10 2
15 10 4 22 3 29 -1 8 -4 9 -3 5 4 -5 8 2 12 18 12 14 0 26 -6 27 -12 0 -7 6 5
13 27 7 23 8 43 3 46 -16 11 51 51 80 47 22 -2 29 -10 34 -33 4 -16 7 -25 8
-19 0 6 11 11 24 10 18 -1 22 4 22 29 0 17 6 34 13 38 6 4 12 15 12 22 0 16
-24 18 -55 5z"/>
<path d="M2774 243 l-52 -4 11 -36 c13 -43 54 -74 68 -52 5 8 7 20 4 27 -3 8
7 17 25 24 17 5 30 13 30 17 0 9 -22 32 -29 29 -4 -1 -29 -3 -57 -5z"/>
<path d="M2068 232 c-13 -5 -15 -11 -8 -22 7 -10 10 -11 10 -2 0 6 10 12 23
11 21 0 21 -1 2 -9 l-20 -9 20 0 c11 0 31 2 44 6 23 6 23 7 5 14 -18 7 -17 8
4 8 12 1 22 -3 22 -9 0 -16 47 -12 54 5 4 13 -7 15 -67 14 -40 0 -80 -3 -89
-7z"/>
<path d="M2655 211 c-3 -6 -26 -11 -49 -11 -38 0 -44 -3 -48 -25 -3 -13 0 -26
5 -28 7 -2 7 -14 -2 -35 -7 -17 -11 -37 -8 -44 3 -7 8 1 12 19 6 27 10 31 26
23 23 -13 70 -13 89 0 10 7 0 8 -32 4 -40 -6 -48 -4 -48 9 0 10 15 20 40 27
37 10 40 13 34 38 -8 34 -10 36 -19 23z"/>
<path d="M3038 213 c-10 -2 -18 -8 -18 -13 0 -5 14 -4 30 1 45 16 36 25 -12
12z"/>
<path d="M2146 180 c-27 -9 -7 -18 24 -10 18 4 21 8 10 12 -8 3 -24 2 -34 -2z"/>
<path d="M2374 168 c2 -18 11 -24 36 -26 50 -5 80 5 80 28 0 18 -7 20 -60 20
-56 0 -60 -1 -56 -22z"/>
<path d="M2088 163 c6 -2 18 -2 25 0 6 3 1 5 -13 5 -14 0 -19 -2 -12 -5z"/>
<path d="M2265 162 c-3 -4 -48 -9 -98 -12 -97 -5 -125 -23 -44 -28 38 -3 47
-7 47 -22 0 -10 3 -25 6 -34 5 -14 8 -14 30 0 18 12 22 22 18 40 -4 16 -2 24
7 24 8 1 27 7 44 14 23 9 26 14 13 18 -9 4 -19 4 -23 0z"/>
<path d="M1708 143 c7 -3 16 -2 19 1 4 3 -2 6 -13 5 -11 0 -14 -3 -6 -6z"/>
<path d="M1153 102 c-8 -21 8 -30 57 -32 65 -4 69 -2 63 20 -6 23 -3 22 -67
24 -32 1 -50 -3 -53 -12z"/>
<path d="M2730 111 c0 -6 5 -13 10 -16 6 -3 10 1 10 9 0 9 -4 16 -10 16 -5 0
-10 -4 -10 -9z"/>
<path d="M2846 105 c-3 -9 0 -15 8 -15 7 0 13 7 13 15 0 8 -4 15 -8 15 -4 0
-9 -7 -13 -15z"/>
<path d="M767 83 c-3 -16 -5 -29 -4 -29 1 -1 26 2 55 6 92 12 85 46 -9 49 -32
1 -37 -2 -42 -26z"/>
<path d="M910 84 c0 -12 4 -14 13 -7 6 6 19 13 27 16 9 3 3 6 -12 6 -20 1 -28
-4 -28 -15z"/>
<path d="M2347 93 c-4 -3 -7 -11 -7 -17 0 -6 5 -5 12 2 6 6 9 14 7 17 -3 3 -9
2 -12 -2z"/>
<path d="M3437 73 c-3 -2 -26 -5 -52 -5 -36 0 -46 -3 -43 -15 6 -30 32 -37 78
-22 46 15 61 33 36 42 -8 3 -16 3 -19 0z"/>
<path d="M2800 45 c0 -14 6 -25 13 -26 6 0 23 -2 37 -4 31 -3 83 22 77 38 -2
7 -29 13 -65 15 -61 3 -62 2 -62 -23z"/>
<path d="M2555 40 c3 -5 8 -10 11 -10 2 0 4 5 4 10 0 6 -5 10 -11 10 -5 0 -7
-4 -4 -10z"/>
<path d="M3237 43 c-12 -11 -8 -23 8 -23 8 0 15 7 15 15 0 16 -12 20 -23 8z"/>
<path d="M3608 39 c-28 -16 -21 -25 17 -21 21 3 35 10 35 18 0 16 -27 18 -52
3z"/>
<path d="M2720 30 c-24 -8 -23 -8 8 -9 20 -1 31 3 27 9 -3 6 -7 10 -8 9 -1 -1
-13 -5 -27 -9z"/>
<path d="M793 23 c9 -2 23 -2 30 0 6 3 -1 5 -18 5 -16 0 -22 -2 -12 -5z"/>
<path d="M923 3 c9 -2 23 -2 30 0 6 3 -1 5 -18 5 -16 0 -22 -2 -12 -5z"/>
</g>
</svg>
